<svg version="1.2" baseProfile="tiny-ps" xmlns="http://www.w3.org/2000/svg" viewBox="0 0 292 100" width="292" height="100">
	<title>logo_v2-ai</title>
	<style>
		tspan { white-space:pre }
		.shp0 { fill: #112e50 } 
		.shp1 { fill: #2889cb } 
		.shp2 { fill: #cbedfa } 
	</style>
	<g id="Слой 1">
		<g id="&lt;Group&gt;">
			<g id="&lt;Group&gt;">
				<g id="&lt;Group&gt;">
					<path id="&lt;Compound Path&gt;" fill-rule="evenodd" class="shp0" d="M65.24 49.72C63.54 51.94 61.07 53.75 57.81 55.14C54.56 56.53 50.76 57.23 46.43 57.23L33.08 57.23L29 75.91L14.65 75.91L26.91 20.28L53.85 20.28C58.63 20.28 62.55 21.82 65.61 24.91C68.67 27.99 70.2 31.76 70.2 36.21C70.2 38.43 69.79 40.68 68.99 42.96C68.18 45.24 66.93 47.5 65.24 49.72ZM55.35 37.79C55.35 36.24 54.82 35.01 53.77 34.12C52.71 33.23 51.32 32.79 49.6 32.79L38.5 32.79L35.84 44.72L47.18 44.72C49.51 44.72 51.46 44.06 53.02 42.75C54.57 41.45 55.35 39.79 55.35 37.79ZM89.71 20.28L77.45 75.91L64.61 75.91L76.87 20.28L89.71 20.28ZM132.25 35.62L123.32 75.91L110.56 75.91L111.56 71.24C108.28 75.02 104.45 76.91 100.06 76.91C95.44 76.91 91.77 75.45 89.05 72.53C86.32 69.61 84.96 65.51 84.96 60.23C84.96 56.17 85.72 52.24 87.25 48.43C88.78 44.62 91.2 41.37 94.51 38.67C97.82 35.97 101.69 34.62 106.14 34.62C111.65 34.62 115.74 36.54 118.4 40.38L119.49 35.62L132.25 35.62ZM116.4 49.64C114.51 47.19 111.84 45.97 108.4 45.97C105.45 45.97 103.02 47.09 101.1 49.34C99.18 51.6 98.22 54.34 98.22 57.56C98.22 59.95 98.97 61.88 100.47 63.36C101.97 64.83 103.84 65.57 106.06 65.57C109.01 65.57 111.54 64.32 113.65 61.81L116.4 49.64ZM164.19 56.43C165.58 58.07 166.28 60.06 166.28 62.4C166.28 66.57 164.62 70.03 161.31 72.78C158.01 75.53 153.57 76.91 148.01 76.91C144.23 76.91 140.57 76.27 137.04 74.99C133.51 73.71 130.52 71.9 128.08 69.57L134.83 61.31C136.28 62.81 138.38 64.23 141.13 65.57C143.88 66.9 146.57 67.57 149.18 67.57C150.46 67.57 151.49 67.29 152.27 66.73C153.04 66.18 153.43 65.48 153.43 64.65C153.43 63.54 152.39 62.56 150.31 61.73C148.22 60.9 145.93 60.16 143.42 59.52C140.92 58.88 138.63 57.64 136.54 55.81C134.46 53.97 133.42 51.64 133.42 48.8C133.42 44.91 134.96 41.57 138.04 38.79C141.13 36.01 145.34 34.62 150.68 34.62C154.07 34.62 157.35 35.19 160.52 36.33C163.69 37.47 166.39 39.07 168.61 41.13L162.44 49.05C161.27 47.77 159.58 46.62 157.35 45.59C155.13 44.56 152.9 44.05 150.68 44.05C149.29 44.05 148.19 44.33 147.39 44.88C146.58 45.44 146.18 46.11 146.18 46.88C146.18 47.66 146.87 48.34 148.26 48.93C149.65 49.51 151.33 50.08 153.31 50.64C155.28 51.19 157.24 51.89 159.19 52.72C161.13 53.56 162.8 54.79 164.19 56.43Z" />
				</g>
			</g>
			<g id="&lt;Group&gt;">
				<g id="&lt;Group&gt;">
					<path id="&lt;Compound Path&gt;" fill-rule="evenodd" class="shp1" d="M222.95 52.38C224.34 54.5 225.04 56.8 225.04 59.31C225.04 61.31 224.67 63.25 223.95 65.14C223.23 67.03 222.13 68.8 220.66 70.44C219.18 72.08 217.14 73.4 214.53 74.4C211.91 75.4 208.88 75.9 205.44 75.9L172.82 75.9L185.09 20.27L214.11 20.27C219.06 20.27 222.89 21.61 225.62 24.28C228.34 26.94 229.71 30.14 229.71 33.87C229.71 37.48 228.44 40.71 225.91 43.54C223.38 46.38 220.45 47.93 217.11 48.21C219.61 48.88 221.56 50.27 222.95 52.38ZM210.69 58.14C210.69 56.86 210.27 55.82 209.44 55.01C208.61 54.2 207.49 53.8 206.1 53.8L192.09 53.8L189.84 63.81L204.18 63.81C206.19 63.81 207.77 63.27 208.94 62.18C210.11 61.1 210.69 59.75 210.69 58.14ZM214.36 36.37C214.36 35.2 213.96 34.24 213.15 33.49C212.34 32.74 211.3 32.37 210.02 32.37L196.85 32.37L194.76 41.62L208.52 41.62C210.58 41.62 212.07 41.11 212.98 40.08C213.9 39.05 214.36 37.82 214.36 36.37ZM247.64 35.62L238.71 75.9L225.87 75.9L234.79 35.62L247.64 35.62ZM238 30.16C236.75 28.9 236.13 27.42 236.13 25.69C236.13 23.14 237 21.09 238.76 19.56C240.51 18.03 242.41 17.27 244.47 17.27C246.36 17.27 247.93 17.88 249.18 19.1C250.43 20.33 251.06 21.8 251.06 23.52C251.06 26.08 250.19 28.14 248.47 29.7C246.75 31.25 244.86 32.03 242.8 32.03C240.85 32.03 239.26 31.41 238 30.16ZM263.65 60.39C263.48 61.06 263.4 61.67 263.4 62.22C263.4 64.45 264.68 65.56 267.24 65.56C268.35 65.56 269.18 65.34 269.74 64.89L269.91 75.15C268.4 76.32 266.1 76.9 262.98 76.9C258.92 76.9 255.69 76.11 253.27 74.53C250.85 72.94 249.64 70.56 249.64 67.4C249.64 66.56 249.72 65.59 249.89 64.48L253.81 46.71L247.14 46.71L249.64 35.62L256.31 35.62L258.73 24.61L271.57 24.61L269.16 35.62L277.33 35.62L274.83 46.71L266.65 46.71L263.65 60.39Z" />
				</g>
			</g>
			<g id="&lt;Group&gt;">
				<g id="&lt;Group&gt;">
					<path id="&lt;Path&gt;" class="shp2" d="M-32.77 10.8C-36.53 6.94 -41.36 5.01 -47.25 5.01L-80.41 5.01L-85.85 30.68L-68.41 30.68L-66.14 20.66L-52.48 20.66C-50.36 20.66 -48.65 21.21 -47.35 22.32C-46.05 23.44 -45.4 24.97 -45.4 26.91C-45.4 29.42 -46.36 31.48 -48.27 33.12C-50.19 34.75 -52.59 35.57 -55.46 35.57L-65.16 35.57L-69.42 35.57L-86.77 35.57L-96.5 82.31L-78.84 82.31L-72.81 51.21L-56.38 51.21C-51.05 51.21 -46.37 50.34 -42.37 48.6C-38.37 46.87 -35.32 44.61 -33.23 41.83C-31.14 39.05 -29.6 36.23 -28.61 33.38C-27.62 30.53 -27.12 27.71 -27.12 24.93C-27.12 19.37 -29.01 14.66 -32.77 10.8Z" />
					<g id="&lt;Group&gt;">
						<g id="&lt;Group&gt;">
							<path id="&lt;Path&gt;" class="shp2" d="M-36.14 50.83C-39.02 52.4 -41.74 53.75 -43.7 54.22C-46.37 54.87 -49.57 55.37 -51.78 55.62C-51.54 55.79 -51.3 55.96 -51.08 56.17C-50.06 57.18 -49.54 58.49 -49.54 60.08C-49.54 62.1 -50.26 63.79 -51.7 65.14C-53.14 66.5 -55.09 67.18 -57.55 67.18L-70.23 67.18L-73.11 82.3L-55.76 82.3C-51.77 82.3 -48.04 81.67 -44.82 80.42C-41.6 79.17 -39.09 77.52 -37.27 75.47C-35.46 73.42 -34.11 71.21 -33.22 68.84C-32.33 66.48 -31.88 64.05 -31.88 61.54C-31.88 58.42 -32.74 55.53 -34.45 52.89C-34.95 52.12 -35.52 51.45 -36.14 50.83Z" />
						</g>
					</g>
				</g>
				<path id="&lt;Path&gt;" class="shp0" d="M-34.61 8.55C-38.38 4.69 -43.21 2.76 -49.09 2.76L-82.26 2.76L-87.69 28.43L-70.26 28.43L-67.98 18.4L-54.33 18.4C-52.21 18.4 -50.5 18.96 -49.19 20.07C-47.89 21.18 -47.24 22.71 -47.24 24.66C-47.24 27.16 -48.2 29.23 -50.12 30.86C-52.04 32.5 -54.43 33.31 -57.31 33.31L-67.01 33.31L-71.27 33.31L-88.62 33.31L-98.35 80.05L-80.69 80.05L-74.66 48.96L-58.23 48.96C-52.89 48.96 -48.22 48.09 -44.21 46.35C-40.21 44.61 -37.16 42.35 -35.08 39.57C-32.99 36.79 -31.45 33.98 -30.46 31.12C-29.46 28.27 -28.97 25.46 -28.97 22.68C-28.97 17.12 -30.85 12.4 -34.61 8.55Z" />
				<g id="&lt;Group&gt;">
					<g id="&lt;Group&gt;">
						<path id="&lt;Path&gt;" class="shp1" d="M-37.98 48.58C-40.86 50.15 -43.58 51.49 -45.55 51.97C-48.22 52.61 -51.42 53.12 -53.63 53.37C-53.38 53.53 -53.14 53.71 -52.93 53.92C-51.9 54.93 -51.39 56.23 -51.39 57.83C-51.39 59.85 -52.11 61.53 -53.55 62.89C-54.98 64.24 -56.93 64.92 -59.4 64.92L-72.08 64.92L-74.95 80.04L-57.6 80.04C-53.61 80.04 -49.88 79.42 -46.67 78.17C-43.45 76.91 -40.93 75.26 -39.12 73.21C-37.31 71.16 -35.95 68.95 -35.06 66.59C-34.17 64.23 -33.73 61.79 -33.73 59.29C-33.73 56.16 -34.59 53.28 -36.3 50.63C-36.79 49.86 -37.37 49.19 -37.98 48.58Z" />
					</g>
				</g>
				<g id="&lt;Group&gt;">
					<g id="&lt;Group&gt;">
						<path id="&lt;Path&gt;" class="shp1" d="M-6.81 50.49C-3.28 44.55 -1.13 36.21 -2.7 28.99C-5.5 16.08 -16.84 7.19 -29.68 6.74C-28.65 7.92 -27.67 9.28 -26.81 10.8C-25.03 13.94 -24.05 17.14 -23.87 19.84C-19.1 21.94 -15.37 26.17 -14.19 31.6C-13.34 35.51 -14.72 40.57 -16.43 43.9L-22.61 39.54L-23.91 63.87L-0.94 54.63L-6.81 50.49Z" />
					</g>
				</g>
				<path id="&lt;Compound Path&gt;" class="shp0" d="M-103.83 45.66L-108.95 40.09C-111.33 42.98 -113.74 47.64 -113.74 51.64C-113.74 59.51 -108.26 66.11 -100.84 67.98L-103.78 79.25C-116.28 76.12 -125.53 65 -125.53 51.75C-125.53 44.36 -121.66 36.67 -116.95 31.62L-121.81 26.32L-97.4 22.17L-103.83 45.66Z" />
			</g>
		</g>
	</g>
</svg>