<svg version="1.2" baseProfile="tiny-ps" xmlns="http://www.w3.org/2000/svg" viewBox="0 0 342 134" width="342" height="134">
	<title>logo-ai</title>
	<style>
		tspan { white-space:pre }
		.shp0 { fill: #ffffff } 
		.shp1 { fill: #2889cb } 
	</style>
	<g id="Слой 1">
		<g id="&lt;Group&gt;">
			<g id="&lt;Group&gt;">
				<g id="&lt;Group&gt;">
					<path id="&lt;Compound Path&gt;" fill-rule="evenodd" class="shp0" d="M83.66 61.48C81.87 63.83 79.25 65.74 75.82 67.21C72.38 68.68 68.37 69.42 63.78 69.42L49.67 69.42L45.35 89.17L30.19 89.17L43.15 30.36L71.63 30.36C76.68 30.36 80.83 31.99 84.06 35.25C87.29 38.51 88.91 42.5 88.91 47.2C88.91 49.55 88.48 51.93 87.63 54.34C86.78 56.75 85.46 59.13 83.66 61.48ZM73.22 48.87C73.22 47.23 72.66 45.94 71.54 44.99C70.42 44.06 68.95 43.58 67.13 43.58L55.41 43.58L52.58 56.19L64.57 56.19C67.04 56.19 69.1 55.5 70.75 54.12C72.39 52.74 73.22 50.99 73.22 48.87ZM109.54 30.36L96.58 89.17L83 89.17L95.96 30.36L109.54 30.36ZM154.5 46.58L145.07 89.17L131.58 89.17L132.64 84.23C129.17 88.23 125.11 90.22 120.47 90.22C115.59 90.22 111.71 88.68 108.83 85.6C105.95 82.51 104.51 78.18 104.51 72.59C104.51 68.3 105.32 64.14 106.94 60.12C108.55 56.09 111.11 52.65 114.61 49.8C118.1 46.95 122.2 45.52 126.91 45.52C132.73 45.52 137.05 47.55 139.87 51.61L141.01 46.58L154.5 46.58ZM137.75 61.39C135.75 58.81 132.93 57.51 129.29 57.51C126.17 57.51 123.6 58.7 121.57 61.09C119.55 63.47 118.53 66.36 118.53 69.77C118.53 72.3 119.32 74.34 120.91 75.9C122.5 77.46 124.47 78.23 126.82 78.23C129.93 78.23 132.61 76.91 134.84 74.27L137.75 61.39ZM188.27 68.58C189.74 70.31 190.47 72.41 190.47 74.88C190.47 79.29 188.72 82.95 185.23 85.86C181.73 88.77 177.04 90.22 171.17 90.22C167.17 90.22 163.3 89.55 159.57 88.2C155.84 86.84 152.68 84.93 150.09 82.47L157.24 73.74C158.76 75.32 160.98 76.82 163.89 78.23C166.8 79.64 169.64 80.35 172.4 80.35C173.75 80.35 174.84 80.06 175.66 79.47C176.48 78.88 176.9 78.15 176.9 77.26C176.9 76.09 175.79 75.06 173.59 74.18C171.39 73.3 168.96 72.52 166.32 71.84C163.67 71.17 161.25 69.86 159.04 67.92C156.84 65.98 155.74 63.51 155.74 60.51C155.74 56.4 157.37 52.87 160.63 49.93C163.89 46.99 168.34 45.52 173.99 45.52C177.57 45.52 181.04 46.13 184.39 47.33C187.74 48.54 190.59 50.23 192.94 52.4L186.42 60.78C185.18 59.43 183.39 58.21 181.04 57.12C178.69 56.03 176.34 55.49 173.99 55.49C172.52 55.49 171.36 55.78 170.5 56.37C169.65 56.96 169.23 57.66 169.23 58.48C169.23 59.31 169.96 60.03 171.43 60.64C172.9 61.26 174.68 61.86 176.76 62.45C178.85 63.04 180.92 63.77 182.98 64.66C185.04 65.54 186.8 66.85 188.27 68.58Z" />
				</g>
			</g>
			<g id="&lt;Group&gt;">
				<g id="&lt;Group&gt;">
					<path id="&lt;Compound Path&gt;" fill-rule="evenodd" class="shp1" d="M250.38 64.3C251.85 66.53 252.59 68.97 252.59 71.62C252.59 73.73 252.2 75.79 251.44 77.79C250.68 79.79 249.52 81.65 247.96 83.39C246.4 85.12 244.24 86.52 241.48 87.57C238.72 88.63 235.51 89.16 231.87 89.16L197.4 89.16L210.36 30.35L241.04 30.35C246.27 30.35 250.32 31.76 253.2 34.59C256.08 37.41 257.52 40.79 257.52 44.72C257.52 48.55 256.19 51.95 253.51 54.95C250.84 57.95 247.74 59.6 244.21 59.89C246.86 60.59 248.91 62.06 250.38 64.3ZM237.42 70.38C237.42 69.03 236.98 67.93 236.1 67.07C235.22 66.22 234.04 65.8 232.57 65.8L217.76 65.8L215.38 76.38L230.55 76.38C232.66 76.38 234.34 75.8 235.57 74.66C236.81 73.51 237.42 72.09 237.42 70.38ZM241.3 47.37C241.3 46.14 240.88 45.12 240.02 44.33C239.17 43.53 238.07 43.14 236.72 43.14L222.79 43.14L220.58 52.92L235.13 52.92C237.3 52.92 238.88 52.38 239.85 51.29C240.82 50.21 241.3 48.9 241.3 47.37ZM266.3 40.8C264.97 39.48 264.31 37.91 264.31 36.08C264.31 33.38 265.24 31.22 267.09 29.6C268.94 27.99 270.95 27.18 273.13 27.18C275.13 27.18 276.79 27.83 278.11 29.12C279.43 30.41 280.09 31.97 280.09 33.79C280.09 36.5 279.18 38.67 277.36 40.32C275.54 41.96 273.54 42.78 271.37 42.78C269.31 42.78 267.62 42.12 266.3 40.8ZM276.48 46.58L267.05 89.16L253.47 89.16L262.9 46.58L276.48 46.58ZM293.41 72.76C293.23 73.47 293.14 74.11 293.14 74.7C293.14 77.05 294.49 78.23 297.2 78.23C298.37 78.23 299.26 77.99 299.84 77.52L300.02 88.37C298.43 89.6 295.99 90.22 292.7 90.22C288.41 90.22 284.99 89.38 282.43 87.71C279.87 86.03 278.6 83.52 278.6 80.17C278.6 79.29 278.68 78.26 278.86 77.08L283 58.3L275.95 58.3L278.6 46.58L285.65 46.58L288.21 34.94L301.78 34.94L299.23 46.58L307.87 46.58L305.22 58.3L296.58 58.3L293.41 72.76Z" />
				</g>
			</g>
		</g>
	</g>
</svg>