<svg version="1.2" baseProfile="tiny-ps" xmlns="http://www.w3.org/2000/svg" viewBox="0 0 301 96" width="301" height="96">
	<title>logo_v2-ai</title>
	<style>
		tspan { white-space:pre }
		.shp0 { fill: #2889cb } 
		.shp1 { fill: #0f1010 } 
		.shp2 { fill: #112e50 } 
		.shp3 { fill: #cbedfa } 
		.shp4 { fill: #ffffff } 
	</style>
	<g id="Слой 1">
		<path id="&lt;Path&gt;" class="shp0" d="M-254.34 -119.41L-963 -119.41L-963 -462.32L-254.34 -462.32L-254.34 -119.41Z" />
		<path id="&lt;Path&gt;" class="shp1" d="M-254.34 223.49L-963 223.49L-963 -119.41L-254.34 -119.41L-254.34 223.49Z" />
		<path id="&lt;Path&gt;" class="shp2" d="M454.32 -119.41L-254.34 -119.41L-254.34 -462.32L454.32 -462.32L454.32 -119.41Z" />
		<g id="&lt;Group&gt;">
			<g id="&lt;Group&gt;">
				<path id="&lt;Path&gt;" class="shp3" d="M178.78 -846.11C166.12 -859.08 149.89 -865.57 130.09 -865.57L18.57 -865.57L0.28 -779.26L58.92 -779.26L66.56 -812.97L112.48 -812.97C119.62 -812.97 125.37 -811.09 129.75 -807.35C134.12 -803.61 136.31 -798.47 136.31 -791.92C136.31 -783.51 133.08 -776.55 126.64 -771.06C120.19 -765.56 112.14 -762.82 102.47 -762.82L69.84 -762.82L55.51 -762.82L-2.82 -762.82L-35.54 -605.64L23.85 -605.64L44.12 -710.21L99.36 -710.21C117.32 -710.21 133.03 -713.13 146.49 -718.98C159.96 -724.82 170.2 -732.42 177.22 -741.77C184.24 -751.12 189.42 -760.59 192.76 -770.18C196.1 -779.76 197.77 -789.23 197.77 -798.59C197.77 -817.29 191.43 -833.13 178.78 -846.11Z" />
				<g id="&lt;Group&gt;">
					<g id="&lt;Group&gt;">
						<path id="&lt;Path&gt;" class="shp3" d="M167.5 -711.52C157.79 -706.23 148.64 -701.68 142.02 -700.08C133.05 -697.92 122.32 -696.22 114.89 -695.39C115.7 -694.83 116.47 -694.23 117.19 -693.53C120.64 -690.13 122.37 -685.75 122.37 -680.37C122.37 -673.59 119.95 -667.92 115.12 -663.37C110.28 -658.81 103.72 -656.53 95.44 -656.53L52.79 -656.53L43.12 -605.68L101.47 -605.68C114.88 -605.68 127.43 -607.78 138.25 -611.99C149.07 -616.2 157.53 -621.75 163.63 -628.65C169.72 -635.54 174.27 -642.96 177.27 -650.92C180.26 -658.86 181.76 -667.05 181.76 -675.47C181.76 -685.99 178.87 -695.69 173.12 -704.57C171.45 -707.15 169.56 -709.45 167.5 -711.52Z" />
					</g>
				</g>
			</g>
			<path id="&lt;Path&gt;" class="shp2" d="M172.57 -853.69C159.91 -866.66 143.68 -873.15 123.89 -873.15L12.37 -873.15L-5.93 -786.84L52.71 -786.84L60.36 -820.55L106.28 -820.55C113.41 -820.55 119.17 -818.67 123.55 -814.93C127.92 -811.19 130.11 -806.05 130.11 -799.5C130.11 -791.09 126.88 -784.13 120.44 -778.64C113.99 -773.14 105.94 -770.4 96.27 -770.4L63.64 -770.4L49.31 -770.4L-9.03 -770.4L-41.74 -613.22L17.64 -613.22L37.92 -717.79L93.16 -717.79C111.12 -717.79 126.83 -720.71 140.29 -726.56C153.76 -732.4 164 -740 171.02 -749.35C178.04 -758.7 183.22 -768.17 186.56 -777.76C189.89 -787.34 191.57 -796.81 191.57 -806.17C191.57 -824.87 185.23 -840.71 172.57 -853.69Z" />
			<g id="&lt;Group&gt;">
				<g id="&lt;Group&gt;">
					<path id="&lt;Path&gt;" class="shp0" d="M161.3 -719.1C151.59 -713.81 142.43 -709.26 135.81 -707.66C126.85 -705.5 116.11 -703.8 108.69 -702.97C109.5 -702.42 110.27 -701.81 110.98 -701.11C114.44 -697.71 116.16 -693.33 116.16 -687.96C116.16 -681.17 113.75 -675.51 108.91 -670.95C104.08 -666.39 97.52 -664.11 89.23 -664.11L46.59 -664.11L36.92 -613.26L95.27 -613.26C108.68 -613.26 121.22 -615.36 132.05 -619.57C142.86 -623.78 151.32 -629.33 157.43 -636.23C163.52 -643.12 168.07 -650.55 171.06 -658.5C174.05 -666.44 175.55 -674.63 175.55 -683.05C175.55 -693.57 172.67 -703.27 166.92 -712.15C165.25 -714.73 163.36 -717.03 161.3 -719.1Z" />
				</g>
			</g>
			<g id="&lt;Group&gt;">
				<g id="&lt;Group&gt;">
					<path id="&lt;Path&gt;" class="shp0" d="M266.08 -712.65C277.96 -732.6 285.17 -760.65 279.9 -784.92C270.47 -828.34 232.33 -858.26 189.15 -859.78C192.62 -855.8 195.91 -851.22 198.82 -846.11C204.82 -835.56 208.12 -824.78 208.69 -815.71C224.76 -808.63 237.28 -794.43 241.24 -776.17C244.1 -763 239.48 -745.99 233.73 -734.79L212.93 -749.45L208.57 -667.65L285.82 -698.71L266.08 -712.65Z" />
				</g>
			</g>
			<path id="&lt;Compound Path&gt;" class="shp2" d="M-60.17 -728.87L-77.39 -747.6C-85.39 -737.87 -93.51 -722.23 -93.51 -708.76C-93.51 -682.31 -75.07 -660.1 -50.12 -653.84L-60 -615.91C-102.05 -626.44 -133.14 -663.85 -133.14 -708.4C-133.14 -733.24 -120.15 -759.13 -104.31 -776.1L-120.64 -793.91L-38.56 -807.87L-60.17 -728.87Z" />
		</g>
		<g id="&lt;Group&gt;">
			<g id="&lt;Group&gt;">
				<g id="&lt;Group&gt;">
					<path id="&lt;Compound Path&gt;" fill-rule="evenodd" class="shp2" d="M-604.81 -862.1C-607.03 -859.18 -610.27 -856.82 -614.53 -855C-618.79 -853.18 -623.76 -852.27 -629.43 -852.27L-646.9 -852.27L-652.25 -827.81L-671.03 -827.81L-654.98 -900.64L-619.72 -900.64C-613.46 -900.64 -608.33 -898.62 -604.32 -894.58C-600.32 -890.54 -598.32 -885.61 -598.32 -879.78C-598.32 -876.87 -598.85 -873.92 -599.9 -870.94C-600.96 -867.95 -602.59 -865.01 -604.81 -862.1ZM-617.75 -877.71C-617.75 -879.75 -618.44 -881.35 -619.83 -882.51C-621.21 -883.68 -623.03 -884.26 -625.28 -884.26L-639.81 -884.26L-643.3 -868.65L-628.45 -868.65C-625.39 -868.65 -622.85 -869.5 -620.81 -871.21C-618.77 -872.92 -617.75 -875.09 -617.75 -877.71ZM-572.77 -900.64L-588.82 -827.81L-605.63 -827.81L-589.58 -900.64L-572.77 -900.64ZM-517.09 -880.55L-528.77 -827.81L-545.48 -827.81L-544.17 -833.93C-548.46 -828.98 -553.48 -826.5 -559.23 -826.5C-565.28 -826.5 -570.08 -828.41 -573.64 -832.24C-577.21 -836.06 -578.99 -841.42 -578.99 -848.34C-578.99 -853.65 -577.99 -858.8 -575.99 -863.79C-573.99 -868.77 -570.82 -873.03 -566.49 -876.56C-562.16 -880.09 -557.09 -881.86 -551.26 -881.86C-544.06 -881.86 -538.71 -879.35 -535.21 -874.32L-533.79 -880.55L-517.09 -880.55ZM-537.83 -862.21C-540.31 -865.41 -543.8 -867.01 -548.32 -867.01C-552.17 -867.01 -555.36 -865.54 -557.87 -862.59C-560.38 -859.64 -561.64 -856.05 -561.64 -851.83C-561.64 -848.7 -560.65 -846.17 -558.69 -844.25C-556.72 -842.32 -554.28 -841.35 -551.37 -841.35C-547.52 -841.35 -544.2 -842.99 -541.44 -846.27L-537.83 -862.21ZM-475.28 -853.31C-473.46 -851.16 -472.55 -848.56 -472.55 -845.5C-472.55 -840.04 -474.71 -835.51 -479.04 -831.91C-483.37 -828.31 -489.18 -826.5 -496.46 -826.5C-501.41 -826.5 -506.19 -827.34 -510.81 -829.02C-515.44 -830.69 -519.35 -833.05 -522.55 -836.11L-513.71 -846.92C-511.81 -844.96 -509.07 -843.1 -505.46 -841.35C-501.86 -839.61 -498.35 -838.73 -494.93 -838.73C-493.25 -838.73 -491.91 -839.1 -490.89 -839.82C-489.87 -840.55 -489.36 -841.46 -489.36 -842.55C-489.36 -844.01 -490.72 -845.28 -493.45 -846.37C-496.18 -847.47 -499.19 -848.43 -502.46 -849.27C-505.74 -850.1 -508.74 -851.72 -511.47 -854.13C-514.2 -856.53 -515.56 -859.59 -515.56 -863.3C-515.56 -868.39 -513.54 -872.76 -509.5 -876.4C-505.46 -880.04 -499.95 -881.86 -492.96 -881.86C-488.52 -881.86 -484.23 -881.11 -480.08 -879.62C-475.93 -878.13 -472.4 -876.03 -469.49 -873.34L-477.57 -862.97C-479.1 -864.64 -481.32 -866.15 -484.23 -867.5C-487.14 -868.85 -490.05 -869.52 -492.96 -869.52C-494.78 -869.52 -496.22 -869.16 -497.28 -868.43C-498.33 -867.7 -498.86 -866.83 -498.86 -865.81C-498.86 -864.79 -497.95 -863.9 -496.13 -863.13C-494.31 -862.37 -492.11 -861.62 -489.52 -860.9C-486.94 -860.17 -484.38 -859.26 -481.83 -858.17C-479.28 -857.07 -477.1 -855.45 -475.28 -853.31Z" />
				</g>
			</g>
			<g id="&lt;Group&gt;">
				<g id="&lt;Group&gt;">
					<path id="&lt;Compound Path&gt;" fill-rule="evenodd" class="shp0" d="M-398.36 -858.61C-396.54 -855.84 -395.63 -852.82 -395.63 -849.55C-395.63 -846.93 -396.1 -844.38 -397.05 -841.91C-398 -839.43 -399.43 -837.12 -401.36 -834.97C-403.29 -832.82 -405.97 -831.1 -409.39 -829.79C-412.81 -828.48 -416.77 -827.82 -421.29 -827.82L-463.98 -827.82L-447.93 -900.64L-409.93 -900.64C-403.45 -900.64 -398.43 -898.9 -394.86 -895.4C-391.3 -891.91 -389.52 -887.72 -389.52 -882.85C-389.52 -878.12 -391.17 -873.89 -394.48 -870.18C-397.8 -866.47 -401.63 -864.43 -406 -864.07C-402.73 -863.2 -400.18 -861.38 -398.36 -858.61ZM-414.41 -851.08C-414.41 -852.75 -414.95 -854.11 -416.05 -855.17C-417.14 -856.22 -418.59 -856.75 -420.41 -856.75L-438.75 -856.75L-441.7 -843.65L-422.92 -843.65C-420.3 -843.65 -418.23 -844.36 -416.7 -845.78C-415.17 -847.2 -414.41 -848.96 -414.41 -851.08ZM-409.6 -879.57C-409.6 -881.1 -410.13 -882.36 -411.19 -883.34C-412.24 -884.32 -413.61 -884.81 -415.28 -884.81L-432.53 -884.81L-435.26 -872.69L-417.25 -872.69C-414.55 -872.69 -412.61 -873.37 -411.41 -874.71C-410.2 -876.06 -409.6 -877.68 -409.6 -879.57ZM-378.65 -887.71C-380.29 -889.34 -381.11 -891.29 -381.11 -893.55C-381.11 -896.89 -379.96 -899.57 -377.67 -901.57C-375.38 -903.57 -372.88 -904.57 -370.19 -904.57C-367.72 -904.57 -365.66 -903.77 -364.02 -902.17C-362.38 -900.57 -361.57 -898.64 -361.57 -896.39C-361.57 -893.04 -362.7 -890.34 -364.95 -888.31C-367.21 -886.27 -369.68 -885.25 -372.37 -885.25C-374.92 -885.25 -377.01 -886.07 -378.65 -887.71ZM-366.04 -880.55L-377.72 -827.82L-394.54 -827.82L-382.86 -880.55L-366.04 -880.55ZM-345.08 -848.13C-345.3 -847.26 -345.41 -846.45 -345.41 -845.73C-345.41 -842.81 -343.73 -841.36 -340.39 -841.36C-338.93 -841.36 -337.84 -841.65 -337.11 -842.23L-336.89 -828.8C-338.86 -827.28 -341.88 -826.51 -345.95 -826.51C-351.27 -826.51 -355.51 -827.55 -358.67 -829.62C-361.84 -831.7 -363.42 -834.81 -363.42 -838.96C-363.42 -840.05 -363.31 -841.32 -363.1 -842.78L-357.96 -866.03L-366.7 -866.03L-363.42 -880.55L-354.69 -880.55L-351.52 -894.97L-334.71 -894.97L-337.88 -880.55L-327.18 -880.55L-330.45 -866.03L-341.15 -866.03L-345.08 -848.13Z" />
				</g>
			</g>
			<g id="&lt;Group&gt;">
				<g id="&lt;Group&gt;">
					<path id="&lt;Path&gt;" class="shp3" d="M-733.1 -913.04C-738.03 -918.09 -744.35 -920.62 -752.06 -920.62L-795.47 -920.62L-802.59 -887.02L-779.76 -887.02L-776.79 -900.14L-758.91 -900.14C-756.13 -900.14 -753.89 -899.41 -752.19 -897.96C-750.49 -896.5 -749.64 -894.5 -749.64 -891.95C-749.64 -888.67 -750.89 -885.97 -753.4 -883.83C-755.91 -881.69 -759.05 -880.62 -762.81 -880.62L-775.51 -880.62L-781.09 -880.62L-803.8 -880.62L-816.53 -819.44L-793.41 -819.44L-785.52 -860.14L-764.02 -860.14C-757.03 -860.14 -750.91 -861.28 -745.67 -863.56C-740.43 -865.83 -736.44 -868.79 -733.71 -872.43C-730.98 -876.07 -728.96 -879.75 -727.66 -883.49C-726.36 -887.22 -725.71 -890.9 -725.71 -894.55C-725.71 -901.83 -728.18 -907.99 -733.1 -913.04Z" />
					<g id="&lt;Group&gt;">
						<g id="&lt;Group&gt;">
							<path id="&lt;Path&gt;" class="shp3" d="M-737.52 -860.64C-741.29 -858.59 -744.84 -856.82 -747.41 -856.2C-750.91 -855.35 -755.1 -854.69 -757.99 -854.37C-757.67 -854.15 -757.36 -853.92 -757.08 -853.65C-755.74 -852.33 -755.06 -850.62 -755.06 -848.53C-755.06 -845.89 -756 -843.68 -757.89 -841.91C-759.77 -840.13 -762.32 -839.25 -765.55 -839.25L-782.15 -839.25L-785.91 -819.45L-763.2 -819.45C-757.98 -819.45 -753.09 -820.27 -748.88 -821.91C-744.67 -823.55 -741.38 -825.71 -739 -828.39C-736.63 -831.08 -734.86 -833.97 -733.69 -837.06C-732.53 -840.15 -731.95 -843.34 -731.95 -846.62C-731.95 -850.71 -733.07 -854.49 -735.31 -857.95C-735.96 -858.96 -736.71 -859.83 -737.52 -860.64Z" />
						</g>
					</g>
				</g>
				<path id="&lt;Path&gt;" class="shp2" d="M-735.52 -915.99C-740.45 -921.05 -746.77 -923.57 -754.47 -923.57L-797.88 -923.57L-805 -889.97L-782.18 -889.97L-779.2 -903.09L-761.33 -903.09C-758.55 -903.09 -756.31 -902.36 -754.61 -900.91C-752.9 -899.45 -752.05 -897.45 -752.05 -894.9C-752.05 -891.63 -753.31 -888.92 -755.81 -886.78C-758.32 -884.64 -761.46 -883.57 -765.22 -883.57L-777.92 -883.57L-783.5 -883.57L-806.21 -883.57L-818.95 -822.39L-795.83 -822.39L-787.94 -863.09L-766.43 -863.09C-759.44 -863.09 -753.33 -864.23 -748.09 -866.51C-742.84 -868.78 -738.86 -871.74 -736.12 -875.38C-733.39 -879.02 -731.38 -882.71 -730.08 -886.44C-728.78 -890.17 -728.13 -893.85 -728.13 -897.5C-728.13 -904.78 -730.59 -910.94 -735.52 -915.99Z" />
				<g id="&lt;Group&gt;">
					<g id="&lt;Group&gt;">
						<path id="&lt;Path&gt;" class="shp0" d="M-739.93 -863.59C-743.7 -861.54 -747.26 -859.77 -749.83 -859.15C-753.33 -858.31 -757.52 -857.65 -760.41 -857.32C-760.09 -857.1 -759.78 -856.87 -759.49 -856.6C-758.15 -855.28 -757.48 -853.57 -757.48 -851.48C-757.48 -848.84 -758.42 -846.63 -760.3 -844.86C-762.18 -843.08 -764.74 -842.2 -767.96 -842.2L-784.56 -842.2L-788.33 -822.4L-765.61 -822.4C-760.39 -822.4 -755.51 -823.22 -751.3 -824.86C-747.08 -826.5 -743.79 -828.66 -741.42 -831.34C-739.04 -834.03 -737.27 -836.92 -736.11 -840.01C-734.94 -843.11 -734.36 -846.29 -734.36 -849.57C-734.36 -853.66 -735.48 -857.44 -737.72 -860.9C-738.37 -861.91 -739.13 -862.78 -739.93 -863.59Z" />
					</g>
				</g>
				<g id="&lt;Group&gt;">
					<g id="&lt;Group&gt;">
						<path id="&lt;Path&gt;" class="shp0" d="M-699.12 -861.09C-694.5 -868.86 -691.69 -879.78 -693.74 -889.23C-697.41 -906.13 -712.26 -917.77 -729.06 -918.36C-727.72 -916.82 -726.44 -915.03 -725.3 -913.04C-722.97 -908.94 -721.68 -904.74 -721.46 -901.21C-715.21 -898.45 -710.33 -892.93 -708.79 -885.82C-707.68 -880.69 -709.47 -874.07 -711.71 -869.71L-719.81 -875.42L-721.51 -843.58L-691.44 -855.67L-699.12 -861.09Z" />
					</g>
				</g>
				<path id="&lt;Compound Path&gt;" class="shp2" d="M-826.12 -867.4L-832.82 -874.7C-835.94 -870.91 -839.1 -864.82 -839.1 -859.58C-839.1 -849.28 -831.92 -840.64 -822.21 -838.2L-826.05 -823.44C-842.42 -827.53 -854.53 -842.1 -854.53 -859.44C-854.53 -869.11 -849.47 -879.18 -843.3 -885.79L-849.66 -892.72L-817.71 -898.16L-826.12 -867.4Z" />
			</g>
		</g>
		<g id="&lt;Group&gt;">
			<g id="&lt;Group&gt;">
				<g id="&lt;Group&gt;">
					<path id="&lt;Compound Path&gt;" fill-rule="evenodd" class="shp2" d="M-663.76 -708.28C-665.46 -706.06 -667.93 -704.25 -671.19 -702.86C-674.44 -701.47 -678.24 -700.77 -682.57 -700.77L-695.92 -700.77L-700 -682.09L-714.35 -682.09L-702.09 -737.72L-675.15 -737.72C-670.37 -737.72 -666.45 -736.18 -663.39 -733.09C-660.33 -730.01 -658.8 -726.24 -658.8 -721.79C-658.8 -719.57 -659.21 -717.32 -660.01 -715.04C-660.82 -712.76 -662.07 -710.5 -663.76 -708.28ZM-673.65 -720.21C-673.65 -721.76 -674.18 -722.99 -675.23 -723.88C-676.29 -724.77 -677.68 -725.21 -679.4 -725.21L-690.5 -725.21L-693.16 -713.28L-681.82 -713.28C-679.49 -713.28 -677.54 -713.94 -675.98 -715.25C-674.43 -716.55 -673.65 -718.21 -673.65 -720.21ZM-639.29 -737.72L-651.55 -682.09L-664.39 -682.09L-652.13 -737.72L-639.29 -737.72ZM-596.75 -722.38L-605.68 -682.09L-618.44 -682.09L-617.44 -686.76C-620.72 -682.98 -624.55 -681.09 -628.94 -681.09C-633.56 -681.09 -637.23 -682.55 -639.95 -685.47C-642.68 -688.39 -644.04 -692.49 -644.04 -697.77C-644.04 -701.83 -643.28 -705.76 -641.75 -709.57C-640.22 -713.38 -637.8 -716.63 -634.49 -719.33C-631.18 -722.03 -627.31 -723.38 -622.86 -723.38C-617.35 -723.38 -613.26 -721.46 -610.6 -717.62L-609.51 -722.38L-596.75 -722.38ZM-612.6 -708.36C-614.49 -710.81 -617.16 -712.03 -620.6 -712.03C-623.55 -712.03 -625.98 -710.91 -627.9 -708.66C-629.82 -706.4 -630.78 -703.66 -630.78 -700.44C-630.78 -698.05 -630.03 -696.12 -628.53 -694.64C-627.03 -693.17 -625.16 -692.43 -622.94 -692.43C-619.99 -692.43 -617.46 -693.68 -615.35 -696.19L-612.6 -708.36ZM-564.81 -701.57C-563.42 -699.93 -562.72 -697.94 -562.72 -695.6C-562.72 -691.43 -564.38 -687.97 -567.69 -685.22C-570.99 -682.47 -575.43 -681.09 -580.99 -681.09C-584.77 -681.09 -588.43 -681.73 -591.96 -683.01C-595.49 -684.29 -598.48 -686.1 -600.92 -688.43L-594.17 -696.69C-592.72 -695.19 -590.62 -693.77 -587.87 -692.43C-585.12 -691.1 -582.43 -690.43 -579.82 -690.43C-578.54 -690.43 -577.51 -690.71 -576.73 -691.27C-575.96 -691.82 -575.57 -692.52 -575.57 -693.35C-575.57 -694.46 -576.61 -695.44 -578.69 -696.27C-580.78 -697.1 -583.07 -697.84 -585.58 -698.48C-588.08 -699.12 -590.37 -700.36 -592.46 -702.19C-594.54 -704.03 -595.58 -706.36 -595.58 -709.2C-595.58 -713.09 -594.04 -716.43 -590.96 -719.21C-587.87 -721.99 -583.66 -723.38 -578.32 -723.38C-574.93 -723.38 -571.65 -722.81 -568.48 -721.67C-565.31 -720.53 -562.61 -718.93 -560.39 -716.87L-566.56 -708.95C-567.73 -710.23 -569.42 -711.38 -571.65 -712.41C-573.87 -713.44 -576.1 -713.95 -578.32 -713.95C-579.71 -713.95 -580.81 -713.67 -581.61 -713.12C-582.42 -712.56 -582.82 -711.89 -582.82 -711.12C-582.82 -710.34 -582.13 -709.66 -580.74 -709.07C-579.35 -708.49 -577.67 -707.92 -575.69 -707.36C-573.72 -706.81 -571.76 -706.11 -569.81 -705.28C-567.87 -704.44 -566.2 -703.21 -564.81 -701.57Z" />
				</g>
			</g>
			<g id="&lt;Group&gt;">
				<g id="&lt;Group&gt;">
					<path id="&lt;Compound Path&gt;" fill-rule="evenodd" class="shp0" d="M-506.05 -705.62C-504.66 -703.5 -503.96 -701.2 -503.96 -698.69C-503.96 -696.69 -504.33 -694.75 -505.05 -692.86C-505.77 -690.97 -506.87 -689.2 -508.34 -687.56C-509.82 -685.92 -511.86 -684.6 -514.47 -683.6C-517.09 -682.6 -520.12 -682.1 -523.56 -682.1L-556.18 -682.1L-543.91 -737.73L-514.89 -737.73C-509.94 -737.73 -506.11 -736.39 -503.38 -733.72C-500.66 -731.06 -499.29 -727.86 -499.29 -724.13C-499.29 -720.52 -500.56 -717.29 -503.09 -714.46C-505.62 -711.62 -508.55 -710.07 -511.89 -709.79C-509.39 -709.12 -507.44 -707.73 -506.05 -705.62ZM-518.31 -699.86C-518.31 -701.14 -518.73 -702.18 -519.56 -702.99C-520.39 -703.8 -521.51 -704.2 -522.9 -704.2L-536.91 -704.2L-539.16 -694.19L-524.82 -694.19C-522.81 -694.19 -521.23 -694.73 -520.06 -695.82C-518.89 -696.9 -518.31 -698.25 -518.31 -699.86ZM-514.64 -721.63C-514.64 -722.8 -515.04 -723.76 -515.85 -724.51C-516.66 -725.26 -517.7 -725.63 -518.98 -725.63L-532.15 -725.63L-534.24 -716.38L-520.48 -716.38C-518.42 -716.38 -516.93 -716.89 -516.02 -717.92C-515.1 -718.95 -514.64 -720.18 -514.64 -721.63ZM-481.36 -722.38L-490.29 -682.1L-503.13 -682.1L-494.21 -722.38L-481.36 -722.38ZM-491 -727.84C-492.25 -729.1 -492.87 -730.58 -492.87 -732.31C-492.87 -734.86 -492 -736.91 -490.24 -738.44C-488.49 -739.97 -486.59 -740.73 -484.53 -740.73C-482.64 -740.73 -481.07 -740.12 -479.82 -738.9C-478.57 -737.67 -477.94 -736.2 -477.94 -734.48C-477.94 -731.92 -478.81 -729.86 -480.53 -728.3C-482.25 -726.75 -484.14 -725.97 -486.2 -725.97C-488.15 -725.97 -489.74 -726.59 -491 -727.84ZM-465.35 -697.61C-465.52 -696.94 -465.6 -696.33 -465.6 -695.78C-465.6 -693.55 -464.32 -692.44 -461.76 -692.44C-460.65 -692.44 -459.82 -692.66 -459.26 -693.11L-459.09 -682.85C-460.6 -681.68 -462.9 -681.1 -466.02 -681.1C-470.08 -681.1 -473.31 -681.89 -475.73 -683.47C-478.15 -685.06 -479.36 -687.44 -479.36 -690.6C-479.36 -691.44 -479.28 -692.41 -479.11 -693.52L-475.19 -711.29L-481.86 -711.29L-479.36 -722.38L-472.69 -722.38L-470.27 -733.39L-457.43 -733.39L-459.84 -722.38L-451.67 -722.38L-454.17 -711.29L-462.35 -711.29L-465.35 -697.61Z" />
				</g>
			</g>
			<g id="&lt;Group&gt;">
				<g id="&lt;Group&gt;">
					<path id="&lt;Path&gt;" class="shp3" d="M-761.77 -747.2C-765.53 -751.06 -770.36 -752.99 -776.25 -752.99L-809.41 -752.99L-814.85 -727.32L-797.41 -727.32L-795.14 -737.34L-781.48 -737.34C-779.36 -737.34 -777.65 -736.79 -776.35 -735.68C-775.05 -734.56 -774.4 -733.03 -774.4 -731.09C-774.4 -728.58 -775.36 -726.52 -777.27 -724.88C-779.19 -723.25 -781.59 -722.43 -784.46 -722.43L-794.16 -722.43L-798.42 -722.43L-815.77 -722.43L-825.5 -675.69L-807.84 -675.69L-801.81 -706.79L-785.38 -706.79C-780.05 -706.79 -775.37 -707.66 -771.37 -709.4C-767.37 -711.13 -764.32 -713.39 -762.23 -716.17C-760.14 -718.95 -758.6 -721.77 -757.61 -724.62C-756.62 -727.47 -756.12 -730.29 -756.12 -733.07C-756.12 -738.63 -758.01 -743.34 -761.77 -747.2Z" />
					<g id="&lt;Group&gt;">
						<g id="&lt;Group&gt;">
							<path id="&lt;Path&gt;" class="shp3" d="M-765.14 -707.17C-768.02 -705.6 -770.74 -704.25 -772.7 -703.78C-775.37 -703.13 -778.57 -702.63 -780.78 -702.38C-780.54 -702.21 -780.3 -702.04 -780.08 -701.83C-779.06 -700.82 -778.54 -699.51 -778.54 -697.92C-778.54 -695.9 -779.26 -694.21 -780.7 -692.86C-782.14 -691.5 -784.09 -690.82 -786.55 -690.82L-799.23 -690.82L-802.11 -675.7L-784.76 -675.7C-780.77 -675.7 -777.04 -676.33 -773.82 -677.58C-770.6 -678.83 -768.09 -680.48 -766.27 -682.53C-764.46 -684.58 -763.11 -686.79 -762.22 -689.16C-761.33 -691.52 -760.88 -693.95 -760.88 -696.46C-760.88 -699.58 -761.74 -702.47 -763.45 -705.11C-763.95 -705.88 -764.52 -706.55 -765.14 -707.17Z" />
						</g>
					</g>
				</g>
				<path id="&lt;Path&gt;" class="shp2" d="M-763.61 -749.45C-767.38 -753.31 -772.21 -755.24 -778.09 -755.24L-811.26 -755.24L-816.69 -729.57L-799.26 -729.57L-796.98 -739.6L-783.33 -739.6C-781.21 -739.6 -779.5 -739.04 -778.19 -737.93C-776.89 -736.82 -776.24 -735.29 -776.24 -733.34C-776.24 -730.84 -777.2 -728.77 -779.12 -727.14C-781.04 -725.5 -783.43 -724.69 -786.31 -724.69L-796.01 -724.69L-800.27 -724.69L-817.62 -724.69L-827.35 -677.95L-809.69 -677.95L-803.66 -709.04L-787.23 -709.04C-781.89 -709.04 -777.22 -709.91 -773.21 -711.65C-769.21 -713.39 -766.16 -715.65 -764.08 -718.43C-761.99 -721.21 -760.45 -724.02 -759.46 -726.88C-758.46 -729.73 -757.97 -732.54 -757.97 -735.32C-757.97 -740.88 -759.85 -745.6 -763.61 -749.45Z" />
				<g id="&lt;Group&gt;">
					<g id="&lt;Group&gt;">
						<path id="&lt;Path&gt;" class="shp0" d="M-766.98 -709.42C-769.86 -707.85 -772.58 -706.51 -774.55 -706.03C-777.22 -705.39 -780.42 -704.88 -782.63 -704.63C-782.38 -704.47 -782.14 -704.29 -781.93 -704.08C-780.9 -703.07 -780.39 -701.77 -780.39 -700.17C-780.39 -698.15 -781.11 -696.47 -782.55 -695.11C-783.98 -693.76 -785.93 -693.08 -788.4 -693.08L-801.08 -693.08L-803.95 -677.96L-786.6 -677.96C-782.61 -677.96 -778.88 -678.58 -775.67 -679.83C-772.45 -681.09 -769.93 -682.74 -768.12 -684.79C-766.31 -686.84 -764.95 -689.05 -764.06 -691.41C-763.17 -693.77 -762.73 -696.21 -762.73 -698.71C-762.73 -701.84 -763.59 -704.72 -765.3 -707.37C-765.79 -708.14 -766.37 -708.81 -766.98 -709.42Z" />
					</g>
				</g>
				<g id="&lt;Group&gt;">
					<g id="&lt;Group&gt;">
						<path id="&lt;Path&gt;" class="shp0" d="M-735.81 -707.51C-732.28 -713.45 -730.13 -721.79 -731.7 -729.01C-734.5 -741.92 -745.84 -750.81 -758.68 -751.26C-757.65 -750.08 -756.67 -748.72 -755.81 -747.2C-754.03 -744.06 -753.05 -740.86 -752.87 -738.16C-748.1 -736.06 -744.37 -731.83 -743.19 -726.4C-742.34 -722.49 -743.72 -717.43 -745.43 -714.1L-751.61 -718.46L-752.91 -694.13L-729.94 -703.37L-735.81 -707.51Z" />
					</g>
				</g>
				<path id="&lt;Compound Path&gt;" class="shp2" d="M-832.83 -712.34L-837.95 -717.91C-840.33 -715.02 -842.74 -710.36 -842.74 -706.36C-842.74 -698.49 -837.26 -691.89 -829.84 -690.02L-832.78 -678.75C-845.28 -681.88 -854.53 -693 -854.53 -706.25C-854.53 -713.64 -850.66 -721.33 -845.95 -726.38L-850.81 -731.68L-826.4 -735.83L-832.83 -712.34Z" />
			</g>
		</g>
		<g id="&lt;Group&gt;">
			<g id="&lt;Group&gt;">
				<g id="&lt;Group&gt;">
					<path id="&lt;Compound Path&gt;" fill-rule="evenodd" class="shp2" d="M-728.28 -576.8C-729.4 -575.33 -731.04 -574.13 -733.19 -573.21C-735.34 -572.29 -737.86 -571.83 -740.73 -571.83L-749.56 -571.83L-752.26 -559.47L-761.76 -559.47L-753.64 -596.28L-735.81 -596.28C-732.65 -596.28 -730.06 -595.26 -728.03 -593.22C-726.01 -591.18 -725 -588.68 -725 -585.74C-725 -584.27 -725.26 -582.78 -725.8 -581.27C-726.33 -579.76 -727.16 -578.27 -728.28 -576.8ZM-734.82 -584.69C-734.82 -585.72 -735.17 -586.53 -735.87 -587.12C-736.57 -587.71 -737.49 -588 -738.63 -588L-745.97 -588L-747.74 -580.11L-740.23 -580.11C-738.68 -580.11 -737.4 -580.54 -736.37 -581.41C-735.34 -582.27 -734.82 -583.37 -734.82 -584.69ZM-712.08 -596.28L-720.19 -559.47L-728.69 -559.47L-720.58 -596.28L-712.08 -596.28ZM-683.93 -586.13L-689.84 -559.47L-698.28 -559.47L-697.62 -562.56C-699.79 -560.05 -702.33 -558.8 -705.24 -558.8C-708.29 -558.8 -710.72 -559.77 -712.52 -561.7C-714.33 -563.63 -715.23 -566.35 -715.23 -569.84C-715.23 -572.53 -714.72 -575.13 -713.71 -577.65C-712.7 -580.17 -711.1 -582.33 -708.91 -584.11C-706.72 -585.9 -704.15 -586.79 -701.21 -586.79C-697.56 -586.79 -694.86 -585.52 -693.09 -582.98L-692.38 -586.13L-683.93 -586.13ZM-694.42 -576.85C-695.67 -578.47 -697.43 -579.28 -699.72 -579.28C-701.67 -579.28 -703.28 -578.54 -704.55 -577.05C-705.82 -575.56 -706.45 -573.74 -706.45 -571.61C-706.45 -570.03 -705.95 -568.75 -704.96 -567.77C-703.97 -566.8 -702.73 -566.31 -701.26 -566.31C-699.31 -566.31 -697.64 -567.14 -696.24 -568.79L-694.42 -576.85ZM-662.79 -572.35C-661.87 -571.27 -661.41 -569.95 -661.41 -568.41C-661.41 -565.65 -662.51 -563.36 -664.69 -561.54C-666.88 -559.71 -669.82 -558.8 -673.5 -558.8C-676 -558.8 -678.42 -559.23 -680.76 -560.07C-683.09 -560.92 -685.07 -562.12 -686.69 -563.66L-682.22 -569.13C-681.26 -568.13 -679.87 -567.19 -678.05 -566.31C-676.23 -565.43 -674.46 -564.99 -672.73 -564.99C-671.88 -564.99 -671.2 -565.17 -670.68 -565.54C-670.17 -565.9 -669.91 -566.37 -669.91 -566.92C-669.91 -567.65 -670.6 -568.3 -671.98 -568.85C-673.36 -569.4 -674.88 -569.89 -676.53 -570.31C-678.19 -570.73 -679.71 -571.55 -681.09 -572.77C-682.47 -573.98 -683.16 -575.53 -683.16 -577.4C-683.16 -579.98 -682.14 -582.19 -680.09 -584.03C-678.05 -585.87 -675.26 -586.79 -671.73 -586.79C-669.49 -586.79 -667.32 -586.41 -665.22 -585.66C-663.12 -584.9 -661.34 -583.84 -659.86 -582.48L-663.95 -577.24C-664.72 -578.09 -665.84 -578.85 -667.32 -579.53C-668.79 -580.21 -670.26 -580.55 -671.73 -580.55C-672.65 -580.55 -673.38 -580.37 -673.91 -580C-674.45 -579.63 -674.71 -579.19 -674.71 -578.67C-674.71 -578.16 -674.25 -577.71 -673.33 -577.32C-672.41 -576.94 -671.3 -576.56 -669.99 -576.19C-668.69 -575.82 -667.39 -575.36 -666.1 -574.81C-664.81 -574.26 -663.71 -573.44 -662.79 -572.35Z" />
				</g>
			</g>
			<g id="&lt;Group&gt;">
				<g id="&lt;Group&gt;">
					<path id="&lt;Compound Path&gt;" fill-rule="evenodd" class="shp0" d="M-623.9 -575.04C-622.98 -573.64 -622.52 -572.11 -622.52 -570.45C-622.52 -569.13 -622.76 -567.84 -623.24 -566.59C-623.72 -565.34 -624.45 -564.17 -625.42 -563.09C-626.4 -562 -627.75 -561.13 -629.48 -560.46C-631.21 -559.8 -633.21 -559.47 -635.49 -559.47L-657.08 -559.47L-648.96 -596.29L-629.75 -596.29C-626.48 -596.29 -623.94 -595.4 -622.14 -593.64C-620.33 -591.87 -619.43 -589.75 -619.43 -587.29C-619.43 -584.9 -620.27 -582.76 -621.94 -580.89C-623.62 -579.01 -625.56 -577.98 -627.77 -577.8C-626.11 -577.35 -624.82 -576.43 -623.9 -575.04ZM-632.02 -571.23C-632.02 -572.07 -632.29 -572.76 -632.85 -573.3C-633.4 -573.83 -634.13 -574.1 -635.05 -574.1L-644.33 -574.1L-645.82 -567.47L-636.32 -567.47C-635 -567.47 -633.95 -567.83 -633.18 -568.55C-632.4 -569.27 -632.02 -570.16 -632.02 -571.23ZM-629.59 -585.63C-629.59 -586.41 -629.86 -587.04 -630.39 -587.54C-630.92 -588.03 -631.61 -588.28 -632.46 -588.28L-641.18 -588.28L-642.56 -582.16L-633.45 -582.16C-632.09 -582.16 -631.11 -582.5 -630.5 -583.18C-629.89 -583.86 -629.59 -584.68 -629.59 -585.63ZM-607.57 -586.13L-613.47 -559.47L-621.97 -559.47L-616.07 -586.13L-607.57 -586.13ZM-613.94 -589.75C-614.77 -590.57 -615.18 -591.56 -615.18 -592.7C-615.18 -594.39 -614.6 -595.74 -613.44 -596.76C-612.28 -597.77 -611.02 -598.27 -609.66 -598.27C-608.41 -598.27 -607.37 -597.87 -606.54 -597.06C-605.72 -596.25 -605.3 -595.27 -605.3 -594.13C-605.3 -592.44 -605.87 -591.08 -607.01 -590.05C-608.15 -589.02 -609.41 -588.5 -610.77 -588.5C-612.06 -588.5 -613.11 -588.92 -613.94 -589.75ZM-596.97 -569.74C-597.08 -569.29 -597.13 -568.89 -597.13 -568.52C-597.13 -567.05 -596.29 -566.31 -594.59 -566.31C-593.86 -566.31 -593.31 -566.46 -592.94 -566.76L-592.83 -559.97C-593.82 -559.19 -595.35 -558.81 -597.41 -558.81C-600.1 -558.81 -602.24 -559.33 -603.84 -560.38C-605.44 -561.43 -606.24 -563 -606.24 -565.1C-606.24 -565.65 -606.19 -566.3 -606.08 -567.03L-603.48 -578.79L-607.9 -578.79L-606.24 -586.13L-601.83 -586.13L-600.22 -593.42L-591.72 -593.42L-593.33 -586.13L-587.92 -586.13L-589.57 -578.79L-594.98 -578.79L-596.97 -569.74Z" />
				</g>
			</g>
			<g id="&lt;Group&gt;">
				<g id="&lt;Group&gt;">
					<path id="&lt;Path&gt;" class="shp3" d="M-793.14 -602.55C-795.63 -605.11 -798.82 -606.39 -802.72 -606.39L-824.67 -606.39L-828.27 -589.4L-816.73 -589.4L-815.22 -596.03L-806.19 -596.03C-804.78 -596.03 -803.65 -595.66 -802.79 -594.93C-801.93 -594.19 -801.5 -593.18 -801.5 -591.89C-801.5 -590.23 -802.13 -588.87 -803.4 -587.78C-804.67 -586.7 -806.25 -586.16 -808.16 -586.16L-814.58 -586.16L-817.4 -586.16L-828.88 -586.16L-835.32 -555.23L-823.63 -555.23L-819.64 -575.81L-808.77 -575.81C-805.23 -575.81 -802.14 -576.38 -799.49 -577.54C-796.84 -578.69 -794.83 -580.18 -793.45 -582.02C-792.06 -583.86 -791.04 -585.73 -790.39 -587.61C-789.73 -589.5 -789.4 -591.36 -789.4 -593.2C-789.4 -596.88 -790.65 -600 -793.14 -602.55Z" />
					<g id="&lt;Group&gt;">
						<g id="&lt;Group&gt;">
							<path id="&lt;Path&gt;" class="shp3" d="M-795.37 -576.06C-797.28 -575.02 -799.07 -574.13 -800.37 -573.82C-802.16 -573.39 -804.26 -573.06 -805.73 -572.9C-805.56 -572.79 -805.4 -572.67 -805.26 -572.53C-804.58 -571.86 -804.24 -571 -804.24 -569.94C-804.24 -568.6 -804.72 -567.49 -805.67 -566.59C-806.62 -565.69 -807.91 -565.25 -809.54 -565.25L-817.93 -565.25L-819.84 -555.24L-808.35 -555.24C-805.71 -555.24 -803.24 -555.65 -801.12 -556.48C-798.99 -557.31 -797.32 -558.4 -796.12 -559.76C-794.92 -561.11 -794.03 -562.58 -793.44 -564.14C-792.85 -565.7 -792.55 -567.32 -792.55 -568.97C-792.55 -571.04 -793.12 -572.95 -794.25 -574.7C-794.58 -575.21 -794.96 -575.65 -795.37 -576.06Z" />
						</g>
					</g>
				</g>
				<path id="&lt;Path&gt;" class="shp2" d="M-794.36 -604.05C-796.85 -606.6 -800.05 -607.88 -803.94 -607.88L-825.89 -607.88L-829.49 -590.89L-817.95 -590.89L-816.44 -597.52L-807.41 -597.52C-806 -597.52 -804.87 -597.16 -804.01 -596.42C-803.15 -595.68 -802.72 -594.67 -802.72 -593.38C-802.72 -591.73 -803.35 -590.36 -804.62 -589.28C-805.89 -588.19 -807.47 -587.65 -809.38 -587.65L-815.8 -587.65L-818.62 -587.65L-830.1 -587.65L-836.54 -556.72L-824.85 -556.72L-820.86 -577.3L-809.99 -577.3C-806.46 -577.3 -803.36 -577.88 -800.71 -579.03C-798.06 -580.18 -796.05 -581.67 -794.67 -583.51C-793.28 -585.35 -792.27 -587.22 -791.61 -589.1C-790.95 -590.99 -790.62 -592.85 -790.62 -594.69C-790.62 -598.38 -791.87 -601.49 -794.36 -604.05Z" />
				<g id="&lt;Group&gt;">
					<g id="&lt;Group&gt;">
						<path id="&lt;Path&gt;" class="shp0" d="M-796.59 -577.55C-798.5 -576.52 -800.29 -575.62 -801.59 -575.31C-803.38 -574.88 -805.49 -574.55 -806.95 -574.39C-806.78 -574.28 -806.63 -574.16 -806.48 -574.02C-805.8 -573.35 -805.46 -572.49 -805.46 -571.43C-805.46 -570.1 -805.94 -568.98 -806.89 -568.08C-807.84 -567.19 -809.13 -566.74 -810.76 -566.74L-819.15 -566.74L-821.06 -556.73L-809.57 -556.73C-806.93 -556.73 -804.47 -557.14 -802.34 -557.97C-800.21 -558.8 -798.54 -559.89 -797.34 -561.25C-796.14 -562.61 -795.25 -564.07 -794.66 -565.63C-794.07 -567.2 -793.77 -568.81 -793.77 -570.46C-793.77 -572.53 -794.34 -574.44 -795.47 -576.19C-795.8 -576.7 -796.18 -577.15 -796.59 -577.55Z" />
					</g>
				</g>
				<g id="&lt;Group&gt;">
					<g id="&lt;Group&gt;">
						<path id="&lt;Path&gt;" class="shp0" d="M-775.96 -576.29C-773.62 -580.22 -772.2 -585.74 -773.24 -590.51C-775.09 -599.06 -782.6 -604.95 -791.1 -605.24C-790.42 -604.46 -789.77 -603.56 -789.2 -602.55C-788.01 -600.47 -787.36 -598.34 -787.26 -596.55C-784.1 -595.15 -781.63 -592.38 -780.85 -588.79C-780.28 -586.2 -781.19 -582.85 -782.33 -580.65L-786.42 -583.53L-787.28 -567.44L-772.07 -573.55L-775.96 -576.29Z" />
					</g>
				</g>
				<path id="&lt;Compound Path&gt;" class="shp2" d="M-840.17 -579.48L-843.55 -583.17C-845.13 -581.25 -846.73 -578.18 -846.73 -575.52C-846.73 -570.32 -843.1 -565.95 -838.19 -564.72L-840.13 -557.25C-848.41 -559.32 -854.53 -566.69 -854.53 -575.45C-854.53 -580.34 -851.97 -585.44 -848.85 -588.78L-852.07 -592.28L-835.91 -595.03L-840.17 -579.48Z" />
			</g>
		</g>
		<g id="&lt;Group&gt;">
			<g id="&lt;Group&gt;">
				<g id="&lt;Group&gt;">
					<path id="&lt;Compound Path&gt;" fill-rule="evenodd" class="shp2" d="M-637.73 -291C-639.42 -288.78 -641.9 -286.97 -645.15 -285.58C-648.4 -284.19 -652.2 -283.5 -656.53 -283.5L-669.88 -283.5L-673.96 -264.81L-688.31 -264.81L-676.05 -320.45L-649.11 -320.45C-644.33 -320.45 -640.41 -318.9 -637.35 -315.82C-634.29 -312.73 -632.76 -308.96 -632.76 -304.51C-632.76 -302.29 -633.17 -300.04 -633.97 -297.76C-634.78 -295.48 -636.03 -293.23 -637.73 -291ZM-647.61 -302.93C-647.61 -304.49 -648.14 -305.71 -649.19 -306.6C-650.25 -307.49 -651.64 -307.93 -653.36 -307.93L-664.46 -307.93L-667.13 -296.01L-655.78 -296.01C-653.45 -296.01 -651.5 -296.66 -649.94 -297.97C-648.39 -299.27 -647.61 -300.93 -647.61 -302.93ZM-613.25 -320.45L-625.51 -264.81L-638.35 -264.81L-626.09 -320.45L-613.25 -320.45ZM-570.71 -305.1L-579.64 -264.81L-592.4 -264.81L-591.4 -269.49C-594.68 -265.7 -598.51 -263.81 -602.91 -263.81C-607.52 -263.81 -611.19 -265.27 -613.92 -268.19C-616.64 -271.11 -618 -275.21 -618 -280.49C-618 -284.55 -617.24 -288.49 -615.71 -292.3C-614.18 -296.1 -611.76 -299.36 -608.45 -302.05C-605.14 -304.75 -601.27 -306.1 -596.82 -306.1C-591.31 -306.1 -587.23 -304.18 -584.56 -300.34L-583.47 -305.1L-570.71 -305.1ZM-586.56 -291.09C-588.45 -293.53 -591.12 -294.76 -594.57 -294.76C-597.51 -294.76 -599.95 -293.63 -601.86 -291.38C-603.78 -289.13 -604.74 -286.39 -604.74 -283.16C-604.74 -280.77 -603.99 -278.84 -602.49 -277.37C-600.99 -275.89 -599.13 -275.16 -596.9 -275.16C-593.95 -275.16 -591.42 -276.41 -589.31 -278.91L-586.56 -291.09ZM-538.77 -284.29C-537.38 -282.65 -536.68 -280.66 -536.68 -278.33C-536.68 -274.16 -538.34 -270.69 -541.65 -267.94C-544.96 -265.19 -549.39 -263.81 -554.95 -263.81C-558.73 -263.81 -562.39 -264.45 -565.92 -265.73C-569.45 -267.01 -572.44 -268.82 -574.88 -271.15L-568.13 -279.41C-566.68 -277.91 -564.58 -276.49 -561.83 -275.16C-559.08 -273.82 -556.4 -273.15 -553.78 -273.15C-552.5 -273.15 -551.48 -273.43 -550.7 -273.99C-549.92 -274.54 -549.53 -275.24 -549.53 -276.07C-549.53 -277.19 -550.57 -278.16 -552.66 -278.99C-554.74 -279.83 -557.03 -280.56 -559.54 -281.2C-562.04 -281.84 -564.33 -283.08 -566.42 -284.91C-568.5 -286.75 -569.55 -289.09 -569.55 -291.92C-569.55 -295.81 -568 -299.15 -564.92 -301.93C-561.83 -304.71 -557.62 -306.1 -552.28 -306.1C-548.89 -306.1 -545.61 -305.53 -542.44 -304.39C-539.27 -303.25 -536.57 -301.65 -534.35 -299.59L-540.52 -291.67C-541.69 -292.95 -543.38 -294.1 -545.61 -295.13C-547.83 -296.16 -550.06 -296.67 -552.28 -296.67C-553.67 -296.67 -554.77 -296.4 -555.57 -295.84C-556.38 -295.28 -556.78 -294.62 -556.78 -293.84C-556.78 -293.06 -556.09 -292.38 -554.7 -291.8C-553.31 -291.21 -551.63 -290.64 -549.65 -290.09C-547.68 -289.53 -545.72 -288.83 -543.77 -288C-541.83 -287.17 -540.16 -285.93 -538.77 -284.29Z" />
				</g>
			</g>
			<g id="&lt;Group&gt;">
				<g id="&lt;Group&gt;">
					<path id="&lt;Compound Path&gt;" fill-rule="evenodd" class="shp4" d="M-480.01 -288.34C-478.62 -286.23 -477.93 -283.92 -477.93 -281.42C-477.93 -279.42 -478.29 -277.47 -479.01 -275.58C-479.73 -273.69 -480.83 -271.92 -482.3 -270.28C-483.78 -268.64 -485.82 -267.32 -488.43 -266.32C-491.05 -265.32 -494.08 -264.82 -497.53 -264.82L-530.14 -264.82L-517.88 -320.45L-488.85 -320.45C-483.9 -320.45 -480.07 -319.12 -477.34 -316.45C-474.62 -313.78 -473.25 -310.58 -473.25 -306.86C-473.25 -303.24 -474.52 -300.02 -477.05 -297.18C-479.58 -294.35 -482.51 -292.79 -485.85 -292.51C-483.35 -291.84 -481.4 -290.45 -480.01 -288.34ZM-492.27 -282.59C-492.27 -283.86 -492.69 -284.91 -493.52 -285.71C-494.36 -286.52 -495.47 -286.92 -496.86 -286.92L-510.87 -286.92L-513.12 -276.91L-498.78 -276.91C-496.77 -276.91 -495.19 -277.46 -494.02 -278.54C-492.85 -279.62 -492.27 -280.97 -492.27 -282.59ZM-488.6 -304.35C-488.6 -305.52 -489 -306.48 -489.81 -307.23C-490.62 -307.98 -491.66 -308.36 -492.94 -308.36L-506.12 -308.36L-508.2 -299.1L-494.44 -299.1C-492.38 -299.1 -490.89 -299.61 -489.98 -300.64C-489.06 -301.67 -488.6 -302.91 -488.6 -304.35ZM-455.32 -305.1L-464.25 -264.82L-477.09 -264.82L-468.17 -305.1L-455.32 -305.1ZM-464.96 -310.57C-466.21 -311.82 -466.83 -313.31 -466.83 -315.03C-466.83 -317.59 -465.96 -319.63 -464.21 -321.16C-462.45 -322.69 -460.55 -323.45 -458.49 -323.45C-456.6 -323.45 -455.03 -322.84 -453.78 -321.62C-452.53 -320.39 -451.9 -318.92 -451.9 -317.2C-451.9 -314.64 -452.77 -312.58 -454.49 -311.03C-456.21 -309.47 -458.1 -308.69 -460.16 -308.69C-462.11 -308.69 -463.71 -309.32 -464.96 -310.57ZM-439.31 -280.33C-439.48 -279.67 -439.56 -279.05 -439.56 -278.5C-439.56 -276.27 -438.28 -275.16 -435.72 -275.16C-434.61 -275.16 -433.78 -275.38 -433.22 -275.83L-433.05 -265.57C-434.56 -264.4 -436.86 -263.82 -439.98 -263.82C-444.04 -263.82 -447.28 -264.61 -449.69 -266.2C-452.11 -267.78 -453.32 -270.16 -453.32 -273.33C-453.32 -274.16 -453.24 -275.13 -453.07 -276.25L-449.15 -294.01L-455.82 -294.01L-453.32 -305.1L-446.65 -305.1L-444.23 -316.11L-431.39 -316.11L-433.81 -305.1L-425.63 -305.1L-428.13 -294.01L-436.31 -294.01L-439.31 -280.33Z" />
				</g>
			</g>
			<g id="&lt;Group&gt;">
				<path id="&lt;Path&gt;" class="shp2" d="M-737.57 -332.18C-741.34 -336.04 -746.17 -337.97 -752.05 -337.97L-785.22 -337.97L-790.66 -312.3L-773.22 -312.3L-770.94 -322.32L-757.29 -322.32C-755.17 -322.32 -753.46 -321.76 -752.16 -320.65C-750.86 -319.54 -750.2 -318.01 -750.2 -316.06C-750.2 -313.56 -751.16 -311.49 -753.08 -309.86C-755 -308.22 -757.39 -307.41 -760.27 -307.41L-769.97 -307.41L-774.23 -307.41L-791.58 -307.41L-801.31 -260.67L-783.65 -260.67L-777.62 -291.77L-761.19 -291.77C-755.85 -291.77 -751.18 -292.63 -747.18 -294.37C-743.17 -296.11 -740.13 -298.37 -738.04 -301.15C-735.95 -303.93 -734.41 -306.75 -733.42 -309.6C-732.43 -312.45 -731.93 -315.26 -731.93 -318.05C-731.93 -323.61 -733.81 -328.32 -737.57 -332.18Z" />
				<g id="&lt;Group&gt;">
					<g id="&lt;Group&gt;">
						<path id="&lt;Path&gt;" class="shp4" d="M-740.95 -292.15C-743.82 -290.58 -746.54 -289.23 -748.51 -288.75C-751.18 -288.11 -754.38 -287.6 -756.59 -287.36C-756.34 -287.19 -756.1 -287.01 -755.89 -286.8C-754.86 -285.8 -754.35 -284.49 -754.35 -282.89C-754.35 -280.88 -755.07 -279.19 -756.51 -277.84C-757.94 -276.48 -759.89 -275.8 -762.36 -275.8L-775.04 -275.8L-777.92 -260.68L-760.56 -260.68C-756.58 -260.68 -752.85 -261.31 -749.63 -262.56C-746.41 -263.81 -743.89 -265.46 -742.08 -267.51C-740.27 -269.56 -738.91 -271.77 -738.02 -274.13C-737.14 -276.5 -736.69 -278.93 -736.69 -281.43C-736.69 -284.56 -737.55 -287.45 -739.26 -290.09C-739.76 -290.86 -740.33 -291.53 -740.95 -292.15Z" />
					</g>
				</g>
				<g id="&lt;Group&gt;">
					<g id="&lt;Group&gt;">
						<path id="&lt;Path&gt;" class="shp4" d="M-709.77 -290.24C-706.24 -296.17 -704.09 -304.51 -705.66 -311.73C-708.46 -324.64 -719.8 -333.53 -732.64 -333.99C-731.61 -332.8 -730.64 -331.44 -729.77 -329.92C-727.99 -326.79 -727.01 -323.58 -726.84 -320.88C-722.06 -318.78 -718.33 -314.55 -717.16 -309.13C-716.31 -305.21 -717.68 -300.15 -719.39 -296.82L-725.57 -301.18L-726.87 -276.86L-703.9 -286.09L-709.77 -290.24Z" />
					</g>
				</g>
				<path id="&lt;Compound Path&gt;" class="shp2" d="M-806.79 -295.06L-811.91 -300.63C-814.29 -297.74 -816.7 -293.09 -816.7 -289.08C-816.7 -281.21 -811.22 -274.61 -803.8 -272.75L-806.74 -261.47C-819.24 -264.6 -828.49 -275.72 -828.49 -288.97C-828.49 -296.36 -824.62 -304.06 -819.91 -309.11L-824.77 -314.4L-800.36 -318.55L-806.79 -295.06Z" />
			</g>
		</g>
		<g id="&lt;Group&gt;">
			<g id="&lt;Group&gt;">
				<g id="&lt;Group&gt;">
					<path id="&lt;Compound Path&gt;" fill-rule="evenodd" class="shp0" d="M71.38 -299C69.68 -296.78 67.21 -294.97 63.95 -293.58C60.7 -292.19 56.91 -291.5 52.57 -291.5L39.22 -291.5L35.14 -272.81L20.79 -272.81L33.05 -328.45L59.99 -328.45C64.77 -328.45 68.69 -326.9 71.75 -323.82C74.81 -320.73 76.34 -316.96 76.34 -312.51C76.34 -310.29 75.94 -308.04 75.13 -305.76C74.32 -303.48 73.07 -301.23 71.38 -299ZM61.49 -310.93C61.49 -312.49 60.96 -313.71 59.91 -314.6C58.85 -315.49 57.46 -315.93 55.74 -315.93L44.65 -315.93L41.98 -304.01L53.32 -304.01C55.66 -304.01 57.6 -304.66 59.16 -305.97C60.71 -307.27 61.49 -308.93 61.49 -310.93ZM95.86 -328.45L83.59 -272.81L70.75 -272.81L83.01 -328.45L95.86 -328.45ZM138.39 -313.1L129.47 -272.81L116.71 -272.81L117.71 -277.49C114.43 -273.7 110.59 -271.81 106.2 -271.81C101.58 -271.81 97.91 -273.27 95.19 -276.19C92.46 -279.11 91.1 -283.21 91.1 -288.49C91.1 -292.55 91.86 -296.49 93.39 -300.3C94.92 -304.1 97.34 -307.36 100.65 -310.05C103.96 -312.75 107.84 -314.1 112.29 -314.1C117.79 -314.1 121.88 -312.18 124.55 -308.34L125.63 -313.1L138.39 -313.1ZM122.54 -299.09C120.65 -301.53 117.98 -302.76 114.54 -302.76C111.59 -302.76 109.16 -301.63 107.24 -299.38C105.32 -297.13 104.36 -294.39 104.36 -291.16C104.36 -288.77 105.11 -286.84 106.61 -285.37C108.12 -283.89 109.98 -283.16 112.2 -283.16C115.15 -283.16 117.68 -284.41 119.79 -286.91L122.54 -299.09ZM170.33 -292.29C171.72 -290.65 172.42 -288.66 172.42 -286.33C172.42 -282.16 170.76 -278.69 167.46 -275.94C164.15 -273.19 159.71 -271.81 154.15 -271.81C150.37 -271.81 146.72 -272.45 143.19 -273.73C139.65 -275.01 136.67 -276.82 134.22 -279.15L140.98 -287.41C142.42 -285.91 144.52 -284.49 147.27 -283.16C150.02 -281.82 152.71 -281.15 155.32 -281.15C156.6 -281.15 157.63 -281.43 158.41 -281.99C159.18 -282.54 159.57 -283.24 159.57 -284.07C159.57 -285.19 158.53 -286.16 156.45 -286.99C154.36 -287.83 152.07 -288.56 149.57 -289.2C147.06 -289.84 144.77 -291.08 142.69 -292.91C140.6 -294.75 139.56 -297.09 139.56 -299.92C139.56 -303.81 141.1 -307.15 144.19 -309.93C147.27 -312.71 151.48 -314.1 156.82 -314.1C160.21 -314.1 163.49 -313.53 166.66 -312.39C169.83 -311.25 172.53 -309.65 174.75 -307.59L168.58 -299.67C167.41 -300.95 165.72 -302.1 163.49 -303.13C161.27 -304.16 159.05 -304.67 156.82 -304.67C155.43 -304.67 154.33 -304.4 153.53 -303.84C152.72 -303.28 152.32 -302.62 152.32 -301.84C152.32 -301.06 153.01 -300.38 154.4 -299.8C155.79 -299.21 157.48 -298.64 159.45 -298.09C161.42 -297.53 163.38 -296.83 165.33 -296C167.28 -295.17 168.94 -293.93 170.33 -292.29Z" />
				</g>
			</g>
			<g id="&lt;Group&gt;">
				<g id="&lt;Group&gt;">
					<path id="&lt;Compound Path&gt;" fill-rule="evenodd" class="shp4" d="M229.09 -296.34C230.48 -294.23 231.18 -291.92 231.18 -289.42C231.18 -287.42 230.82 -285.47 230.09 -283.58C229.37 -281.69 228.27 -279.92 226.8 -278.28C225.32 -276.64 223.28 -275.32 220.67 -274.32C218.05 -273.32 215.02 -272.82 211.58 -272.82L178.97 -272.82L191.23 -328.45L220.25 -328.45C225.2 -328.45 229.04 -327.12 231.76 -324.45C234.49 -321.78 235.85 -318.58 235.85 -314.86C235.85 -311.24 234.58 -308.02 232.05 -305.18C229.52 -302.35 226.59 -300.79 223.25 -300.51C225.76 -299.84 227.7 -298.45 229.09 -296.34ZM216.83 -290.59C216.83 -291.86 216.42 -292.91 215.58 -293.71C214.75 -294.52 213.63 -294.92 212.24 -294.92L198.23 -294.92L195.98 -284.91L210.33 -284.91C212.33 -284.91 213.91 -285.46 215.08 -286.54C216.25 -287.62 216.83 -288.97 216.83 -290.59ZM220.5 -312.35C220.5 -313.52 220.1 -314.48 219.29 -315.23C218.49 -315.98 217.44 -316.36 216.16 -316.36L202.99 -316.36L200.9 -307.1L214.66 -307.1C216.72 -307.1 218.21 -307.61 219.13 -308.64C220.04 -309.67 220.5 -310.91 220.5 -312.35ZM244.15 -318.57C242.9 -319.82 242.27 -321.31 242.27 -323.03C242.27 -325.59 243.15 -327.63 244.9 -329.16C246.65 -330.69 248.55 -331.45 250.61 -331.45C252.5 -331.45 254.07 -330.84 255.32 -329.62C256.57 -328.39 257.2 -326.92 257.2 -325.2C257.2 -322.64 256.34 -320.58 254.61 -319.03C252.89 -317.47 251 -316.69 248.94 -316.69C247 -316.69 245.4 -317.32 244.15 -318.57ZM253.78 -313.1L244.86 -272.82L232.01 -272.82L240.94 -313.1L253.78 -313.1ZM269.79 -288.33C269.63 -287.67 269.54 -287.05 269.54 -286.5C269.54 -284.27 270.82 -283.16 273.38 -283.16C274.49 -283.16 275.32 -283.38 275.88 -283.83L276.05 -273.57C274.55 -272.4 272.24 -271.82 269.13 -271.82C265.07 -271.82 261.83 -272.61 259.41 -274.2C256.99 -275.78 255.78 -278.16 255.78 -281.33C255.78 -282.16 255.86 -283.13 256.03 -284.25L259.95 -302.01L253.28 -302.01L255.78 -313.1L262.45 -313.1L264.87 -324.11L277.72 -324.11L275.3 -313.1L283.47 -313.1L280.97 -302.01L272.8 -302.01L269.79 -288.33Z" />
				</g>
			</g>
			<g id="&lt;Group&gt;">
				<path id="&lt;Path&gt;" class="shp0" d="M-28.47 -340.18C-32.24 -344.04 -37.06 -345.97 -42.95 -345.97L-76.11 -345.97L-81.55 -320.3L-64.12 -320.3L-61.84 -330.32L-48.19 -330.32C-46.07 -330.32 -44.35 -329.76 -43.05 -328.65C-41.75 -327.54 -41.1 -326.01 -41.1 -324.06C-41.1 -321.56 -42.06 -319.49 -43.98 -317.86C-45.89 -316.22 -48.29 -315.41 -51.16 -315.41L-60.87 -315.41L-65.13 -315.41L-82.47 -315.41L-92.2 -268.67L-74.54 -268.67L-68.52 -299.77L-52.09 -299.77C-46.75 -299.77 -42.08 -300.63 -38.07 -302.37C-34.07 -304.11 -31.02 -306.37 -28.93 -309.15C-26.85 -311.93 -25.31 -314.75 -24.31 -317.6C-23.32 -320.45 -22.82 -323.26 -22.82 -326.05C-22.82 -331.61 -24.71 -336.32 -28.47 -340.18Z" />
				<g id="&lt;Group&gt;">
					<g id="&lt;Group&gt;">
						<path id="&lt;Path&gt;" class="shp4" d="M-31.84 -300.15C-34.72 -298.58 -37.44 -297.23 -39.4 -296.75C-42.08 -296.11 -45.28 -295.6 -47.49 -295.36C-47.24 -295.19 -47 -295.01 -46.79 -294.8C-45.76 -293.8 -45.25 -292.49 -45.25 -290.89C-45.25 -288.88 -45.97 -287.19 -47.4 -285.84C-48.84 -284.48 -50.79 -283.8 -53.26 -283.8L-65.94 -283.8L-68.81 -268.68L-51.46 -268.68C-47.47 -268.68 -43.74 -269.31 -40.52 -270.56C-37.31 -271.81 -34.79 -273.46 -32.98 -275.51C-31.16 -277.56 -29.81 -279.77 -28.92 -282.13C-28.03 -284.5 -27.59 -286.93 -27.59 -289.43C-27.59 -292.56 -28.44 -295.45 -30.15 -298.09C-30.65 -298.86 -31.23 -299.53 -31.84 -300.15Z" />
					</g>
				</g>
				<g id="&lt;Group&gt;">
					<g id="&lt;Group&gt;">
						<path id="&lt;Path&gt;" class="shp4" d="M-0.67 -298.24C2.87 -304.17 5.01 -312.51 3.44 -319.73C0.64 -332.64 -10.7 -341.53 -23.54 -341.99C-22.51 -340.8 -21.53 -339.44 -20.67 -337.92C-18.88 -334.79 -17.9 -331.58 -17.73 -328.88C-12.96 -326.78 -9.23 -322.55 -8.05 -317.13C-7.2 -313.21 -8.58 -308.15 -10.29 -304.82L-16.47 -309.18L-17.77 -284.86L5.2 -294.09L-0.67 -298.24Z" />
					</g>
				</g>
				<path id="&lt;Compound Path&gt;" class="shp0" d="M-97.69 -303.06L-102.8 -308.63C-105.18 -305.74 -107.6 -301.09 -107.6 -297.08C-107.6 -289.21 -102.11 -282.61 -94.69 -280.75L-97.63 -269.47C-110.14 -272.6 -119.38 -283.72 -119.38 -296.97C-119.38 -304.36 -115.52 -312.06 -110.81 -317.11L-115.67 -322.4L-91.26 -326.55L-97.69 -303.06Z" />
			</g>
		</g>
		<g id="&lt;Group&gt;">
			<g id="&lt;Group&gt;">
				<g id="&lt;Group&gt;">
					<path id="&lt;Compound Path&gt;" fill-rule="evenodd" class="shp4" d="M-619.34 49.46C-621.03 51.69 -623.51 53.5 -626.76 54.89C-630.01 56.28 -633.81 56.97 -638.14 56.97L-651.49 56.97L-655.58 75.65L-669.92 75.65L-657.66 20.02L-630.72 20.02C-625.94 20.02 -622.02 21.57 -618.96 24.65C-615.9 27.74 -614.37 31.51 -614.37 35.95C-614.37 38.18 -614.78 40.43 -615.58 42.71C-616.39 44.99 -617.64 47.24 -619.34 49.46ZM-629.22 37.54C-629.22 35.98 -629.75 34.76 -630.8 33.87C-631.86 32.98 -633.25 32.53 -634.97 32.53L-646.07 32.53L-648.74 44.46L-637.39 44.46C-635.06 44.46 -633.11 43.81 -631.55 42.5C-630 41.19 -629.22 39.54 -629.22 37.54ZM-594.86 20.02L-607.12 75.65L-619.96 75.65L-607.7 20.02L-594.86 20.02ZM-552.32 35.37L-561.25 75.65L-574.01 75.65L-573.01 70.98C-576.29 74.76 -580.12 76.65 -584.52 76.65C-589.13 76.65 -592.8 75.19 -595.53 72.28C-598.25 69.36 -599.61 65.26 -599.61 59.97C-599.61 55.92 -598.85 51.98 -597.32 48.17C-595.79 44.36 -593.37 41.11 -590.06 38.41C-586.76 35.72 -582.88 34.37 -578.43 34.37C-572.92 34.37 -568.84 36.29 -566.17 40.12L-565.08 35.37L-552.32 35.37ZM-568.17 49.38C-570.06 46.94 -572.73 45.71 -576.18 45.71C-579.12 45.71 -581.56 46.84 -583.47 49.09C-585.39 51.34 -586.35 54.08 -586.35 57.3C-586.35 59.7 -585.6 61.63 -584.1 63.1C-582.6 64.58 -580.74 65.31 -578.51 65.31C-575.56 65.31 -573.04 64.06 -570.92 61.56L-568.17 49.38ZM-520.38 56.18C-518.99 57.82 -518.29 59.81 -518.29 62.14C-518.29 66.31 -519.95 69.77 -523.26 72.53C-526.57 75.28 -531 76.65 -536.56 76.65C-540.34 76.65 -544 76.01 -547.53 74.74C-551.06 73.46 -554.05 71.65 -556.49 69.31L-549.74 61.06C-548.29 62.56 -546.19 63.98 -543.44 65.31C-540.69 66.65 -538.01 67.31 -535.39 67.31C-534.11 67.31 -533.09 67.04 -532.31 66.48C-531.53 65.92 -531.14 65.23 -531.14 64.39C-531.14 63.28 -532.18 62.31 -534.27 61.47C-536.35 60.64 -538.64 59.9 -541.15 59.26C-543.65 58.63 -545.94 57.39 -548.03 55.55C-550.11 53.72 -551.16 51.38 -551.16 48.55C-551.16 44.66 -549.61 41.32 -546.53 38.54C-543.44 35.76 -539.23 34.37 -533.89 34.37C-530.5 34.37 -527.22 34.94 -524.05 36.08C-520.88 37.22 -518.18 38.82 -515.96 40.87L-522.13 48.8C-523.3 47.52 -524.99 46.37 -527.22 45.34C-529.44 44.31 -531.67 43.79 -533.89 43.79C-535.28 43.79 -536.38 44.07 -537.19 44.63C-537.99 45.18 -538.39 45.85 -538.39 46.63C-538.39 47.41 -537.7 48.09 -536.31 48.67C-534.92 49.26 -533.24 49.83 -531.26 50.38C-529.29 50.94 -527.33 51.63 -525.38 52.47C-523.44 53.3 -521.77 54.54 -520.38 56.18Z" />
				</g>
			</g>
			<g id="&lt;Group&gt;">
				<g id="&lt;Group&gt;">
					<path id="&lt;Compound Path&gt;" fill-rule="evenodd" class="shp4" d="M-461.62 52.13C-460.23 54.24 -459.54 56.55 -459.54 59.05C-459.54 61.05 -459.9 63 -460.62 64.89C-461.34 66.78 -462.44 68.55 -463.91 70.19C-465.39 71.83 -467.43 73.15 -470.04 74.15C-472.66 75.15 -475.69 75.65 -479.14 75.65L-511.75 75.65L-499.49 20.02L-470.46 20.02C-465.51 20.02 -461.68 21.35 -458.95 24.02C-456.23 26.69 -454.86 29.89 -454.86 33.61C-454.86 37.23 -456.13 40.45 -458.66 43.29C-461.19 46.12 -464.12 47.68 -467.46 47.96C-464.96 48.63 -463.01 50.02 -461.62 52.13ZM-473.88 57.88C-473.88 56.6 -474.3 55.56 -475.13 54.76C-475.97 53.95 -477.08 53.55 -478.47 53.55L-492.48 53.55L-494.73 63.55L-480.39 63.55C-478.38 63.55 -476.8 63.01 -475.63 61.93C-474.46 60.84 -473.88 59.5 -473.88 57.88ZM-470.21 36.11C-470.21 34.95 -470.61 33.99 -471.42 33.24C-472.23 32.49 -473.27 32.11 -474.55 32.11L-487.73 32.11L-489.81 41.37L-476.05 41.37C-473.99 41.37 -472.5 40.86 -471.59 39.83C-470.67 38.8 -470.21 37.56 -470.21 36.11ZM-436.93 35.36L-445.86 75.65L-458.7 75.65L-449.78 35.36L-436.93 35.36ZM-446.57 29.9C-447.82 28.65 -448.44 27.16 -448.44 25.44C-448.44 22.88 -447.57 20.84 -445.82 19.31C-444.06 17.78 -442.16 17.01 -440.1 17.01C-438.21 17.01 -436.64 17.63 -435.39 18.85C-434.14 20.07 -433.51 21.55 -433.51 23.27C-433.51 25.83 -434.38 27.89 -436.1 29.44C-437.82 31 -439.71 31.78 -441.77 31.78C-443.72 31.78 -445.32 31.15 -446.57 29.9ZM-420.92 60.13C-421.09 60.8 -421.17 61.41 -421.17 61.97C-421.17 64.19 -419.89 65.31 -417.33 65.31C-416.22 65.31 -415.39 65.08 -414.83 64.64L-414.67 74.9C-416.17 76.07 -418.47 76.65 -421.59 76.65C-425.65 76.65 -428.89 75.86 -431.3 74.27C-433.72 72.69 -434.93 70.31 -434.93 67.14C-434.93 66.31 -434.85 65.33 -434.68 64.22L-430.76 46.46L-437.43 46.46L-434.93 35.36L-428.26 35.36L-425.84 24.35L-413 24.35L-415.42 35.36L-407.24 35.36L-409.74 46.46L-417.92 46.46L-420.92 60.13Z" />
				</g>
			</g>
			<g id="&lt;Group&gt;">
				<path id="&lt;Path&gt;" class="shp4" d="M-719.19 8.29C-722.95 4.43 -727.78 2.5 -733.66 2.5L-766.83 2.5L-772.27 28.17L-754.83 28.17L-752.55 18.15L-738.9 18.15C-736.78 18.15 -735.07 18.7 -733.77 19.81C-732.47 20.93 -731.81 22.46 -731.81 24.4C-731.81 26.91 -732.77 28.98 -734.69 30.61C-736.61 32.24 -739 33.06 -741.88 33.06L-751.58 33.06L-755.84 33.06L-773.19 33.06L-782.92 79.8L-765.26 79.8L-759.23 48.7L-742.8 48.7C-737.46 48.7 -732.79 47.83 -728.79 46.1C-724.78 44.36 -721.74 42.1 -719.65 39.32C-717.56 36.54 -716.02 33.72 -715.03 30.87C-714.04 28.02 -713.54 25.2 -713.54 22.42C-713.54 16.86 -715.42 12.15 -719.19 8.29Z" />
				<g id="&lt;Group&gt;">
					<g id="&lt;Group&gt;">
						<path id="&lt;Path&gt;" class="shp4" d="M-722.56 48.32C-725.44 49.89 -728.15 51.24 -730.12 51.71C-732.79 52.36 -735.99 52.86 -738.2 53.11C-737.95 53.28 -737.72 53.45 -737.5 53.66C-736.47 54.67 -735.96 55.98 -735.96 57.57C-735.96 59.59 -736.68 61.28 -738.12 62.63C-739.55 63.99 -741.5 64.67 -743.97 64.67L-756.65 64.67L-759.53 79.79L-742.17 79.79C-738.19 79.79 -734.46 79.16 -731.24 77.91C-728.02 76.66 -725.5 75.01 -723.69 72.96C-721.88 70.91 -720.52 68.7 -719.63 66.34C-718.75 63.97 -718.3 61.54 -718.3 59.03C-718.3 55.91 -719.16 53.02 -720.87 50.38C-721.37 49.61 -721.94 48.94 -722.56 48.32Z" />
					</g>
				</g>
				<g id="&lt;Group&gt;">
					<g id="&lt;Group&gt;">
						<path id="&lt;Path&gt;" class="shp4" d="M-691.38 50.23C-687.85 44.3 -685.7 35.96 -687.27 28.74C-690.07 15.83 -701.41 6.93 -714.25 6.48C-713.22 7.66 -712.25 9.02 -711.38 10.55C-709.6 13.68 -708.62 16.89 -708.45 19.58C-703.67 21.69 -699.94 25.91 -698.77 31.34C-697.92 35.26 -699.29 40.32 -701 43.65L-707.18 39.29L-708.48 63.61L-685.51 54.38L-691.38 50.23Z" />
					</g>
				</g>
				<path id="&lt;Compound Path&gt;" class="shp4" d="M-788.4 45.41L-793.52 39.84C-795.9 42.73 -798.31 47.38 -798.31 51.39C-798.31 59.25 -792.83 65.86 -785.41 67.72L-788.35 79C-800.85 75.87 -810.1 64.74 -810.1 51.49C-810.1 44.11 -806.23 36.41 -801.52 31.36L-806.38 26.07L-781.97 21.91L-788.4 45.41Z" />
			</g>
		</g>
		<g id="&lt;Group&gt;">
			<g id="&lt;Group&gt;">
				<g id="&lt;Group&gt;">
					<path id="&lt;Compound Path&gt;" fill-rule="evenodd" class="shp4" d="M65.67 49.83C63.98 52.06 61.5 53.86 58.25 55.25C55 56.64 51.2 57.34 46.87 57.34L33.52 57.34L29.43 76.02L15.09 76.02L27.35 20.39L54.29 20.39C59.07 20.39 62.99 21.93 66.05 25.02C69.11 28.11 70.64 31.87 70.64 36.32C70.64 38.54 70.23 40.8 69.43 43.08C68.62 45.36 67.37 47.61 65.67 49.83ZM55.79 37.9C55.79 36.35 55.26 35.13 54.2 34.24C53.15 33.35 51.76 32.9 50.03 32.9L38.94 32.9L36.27 44.83L47.62 44.83C49.95 44.83 51.9 44.17 53.45 42.87C55.01 41.56 55.79 39.91 55.79 37.9ZM90.15 20.39L77.89 76.02L65.05 76.02L77.31 20.39L90.15 20.39ZM132.69 35.74L123.76 76.02L111 76.02L112 71.35C108.72 75.13 104.88 77.02 100.49 77.02C95.88 77.02 92.21 75.56 89.48 72.64C86.76 69.72 85.4 65.62 85.4 60.34C85.4 56.28 86.16 52.35 87.69 48.54C89.22 44.73 91.64 41.48 94.95 38.78C98.25 36.08 102.13 34.74 106.58 34.74C112.09 34.74 116.17 36.65 118.84 40.49L119.93 35.74L132.69 35.74ZM116.84 49.75C114.95 47.3 112.28 46.08 108.83 46.08C105.89 46.08 103.45 47.2 101.54 49.46C99.62 51.71 98.66 54.45 98.66 57.67C98.66 60.06 99.41 62 100.91 63.47C102.41 64.94 104.27 65.68 106.5 65.68C109.44 65.68 111.97 64.43 114.09 61.93L116.84 49.75ZM164.63 56.55C166.02 58.19 166.71 60.17 166.71 62.51C166.71 66.68 165.06 70.14 161.75 72.89C158.44 75.65 154.01 77.02 148.45 77.02C144.67 77.02 141.01 76.38 137.48 75.1C133.95 73.83 130.96 72.02 128.52 69.68L135.27 61.43C136.72 62.93 138.82 64.34 141.57 65.68C144.32 67.01 147 67.68 149.62 67.68C150.9 67.68 151.92 67.4 152.7 66.85C153.48 66.29 153.87 65.6 153.87 64.76C153.87 63.65 152.83 62.68 150.74 61.84C148.66 61.01 146.36 60.27 143.86 59.63C141.36 58.99 139.07 57.76 136.98 55.92C134.9 54.09 133.85 51.75 133.85 48.91C133.85 45.02 135.4 41.69 138.48 38.91C141.57 36.13 145.78 34.74 151.12 34.74C154.51 34.74 157.79 35.31 160.96 36.45C164.13 37.59 166.83 39.18 169.05 41.24L162.88 49.16C161.71 47.89 160.01 46.73 157.79 45.7C155.57 44.68 153.34 44.16 151.12 44.16C149.73 44.16 148.63 44.44 147.82 44.99C147.02 45.55 146.61 46.22 146.61 47C146.61 47.78 147.31 48.46 148.7 49.04C150.09 49.62 151.77 50.19 153.75 50.75C155.72 51.31 157.68 52 159.63 52.83C161.57 53.67 163.24 54.91 164.63 56.55Z" />
				</g>
			</g>
			<g id="&lt;Group&gt;">
				<g id="&lt;Group&gt;">
					<path id="&lt;Compound Path&gt;" fill-rule="evenodd" class="shp4" d="M223.39 52.5C224.78 54.61 225.47 56.92 225.47 59.42C225.47 61.42 225.11 63.37 224.39 65.26C223.67 67.15 222.57 68.91 221.09 70.55C219.62 72.19 217.58 73.51 214.96 74.51C212.35 75.51 209.32 76.02 205.87 76.02L173.26 76.02L185.52 20.38L214.55 20.38C219.5 20.38 223.33 21.72 226.06 24.39C228.78 27.06 230.14 30.25 230.14 33.98C230.14 37.59 228.88 40.82 226.35 43.65C223.82 46.49 220.89 48.05 217.55 48.33C220.05 48.99 222 50.38 223.39 52.5ZM211.13 58.25C211.13 56.97 210.71 55.93 209.88 55.12C209.04 54.32 207.93 53.91 206.54 53.91L192.53 53.91L190.28 63.92L204.62 63.92C206.62 63.92 208.21 63.38 209.38 62.3C210.54 61.21 211.13 59.86 211.13 58.25ZM214.8 36.48C214.8 35.31 214.39 34.35 213.59 33.6C212.78 32.85 211.74 32.48 210.46 32.48L197.28 32.48L195.2 41.74L208.96 41.74C211.02 41.74 212.5 41.22 213.42 40.19C214.34 39.16 214.8 37.93 214.8 36.48ZM238.44 30.27C237.19 29.02 236.57 27.53 236.57 25.81C236.57 23.25 237.44 21.21 239.19 19.68C240.94 18.15 242.85 17.38 244.91 17.38C246.8 17.38 248.37 17.99 249.62 19.22C250.87 20.44 251.5 21.91 251.5 23.64C251.5 26.2 250.63 28.25 248.91 29.81C247.19 31.37 245.29 32.14 243.24 32.14C241.29 32.14 239.69 31.52 238.44 30.27ZM248.08 35.73L239.15 76.02L226.31 76.02L235.23 35.73L248.08 35.73ZM264.09 60.5C263.92 61.17 263.84 61.78 263.84 62.34C263.84 64.56 265.12 65.67 267.67 65.67C268.79 65.67 269.62 65.45 270.18 65.01L270.34 75.26C268.84 76.43 266.53 77.02 263.42 77.02C259.36 77.02 256.12 76.22 253.7 74.64C251.29 73.05 250.08 70.68 250.08 67.51C250.08 66.67 250.16 65.7 250.33 64.59L254.25 46.82L247.57 46.82L250.08 35.73L256.75 35.73L259.17 24.72L272.01 24.72L269.59 35.73L277.77 35.73L275.26 46.82L267.09 46.82L264.09 60.5Z" />
				</g>
			</g>
		</g>
	</g>
</svg>